<svg width="32" height="32" viewBox="0 0 32 32" fill="none" xmlns="http://www.w3.org/2000/svg">
<path d="M29.3333 25.3333V29.3333H2.66663V25.3333C2.66663 24.6 3.26663 24 3.99996 24H28C28.7333 24 29.3333 24.6 29.3333 25.3333Z" fill="#125EF7" stroke="#125EF7" stroke-width="1.5" stroke-miterlimit="10" stroke-linecap="round" stroke-linejoin="round"/>
<path d="M9.33329 14.6667H6.66663V24H9.33329V14.6667Z" fill="#125EF7"/>
<path d="M14.6667 14.6667H12V24H14.6667V14.6667Z" fill="#125EF7"/>
<path d="M20 14.6667H17.3334V24H20V14.6667Z" fill="#125EF7"/>
<path d="M25.3333 14.6667H22.6666V24H25.3333V14.6667Z" fill="#125EF7"/>
<path d="M30.6667 30.3333H1.33337C0.786707 30.3333 0.333374 29.88 0.333374 29.3333C0.333374 28.7867 0.786707 28.3333 1.33337 28.3333H30.6667C31.2134 28.3333 31.6667 28.7867 31.6667 29.3333C31.6667 29.88 31.2134 30.3333 30.6667 30.3333Z" fill="#125EF7"/>
<path d="M28.4933 7.66668L16.4933 2.86668C16.2266 2.76002 15.7733 2.76002 15.5066 2.86668L3.50663 7.66668C3.03996 7.85335 2.66663 8.40002 2.66663 8.90668V13.3333C2.66663 14.0667 3.26663 14.6667 3.99996 14.6667H28C28.7333 14.6667 29.3333 14.0667 29.3333 13.3333V8.90668C29.3333 8.40002 28.96 7.85335 28.4933 7.66668ZM16 11.3333C14.8933 11.3333 14 10.44 14 9.33335C14 8.22668 14.8933 7.33335 16 7.33335C17.1066 7.33335 18 8.22668 18 9.33335C18 10.44 17.1066 11.3333 16 11.3333Z" fill="#125EF7"/>
</svg>
