<svg width="80" height="81" viewBox="0 0 80 81" fill="none" xmlns="http://www.w3.org/2000/svg">
<rect width="80" height="81" rx="8" fill="white"/>
<path d="M40.0001 50.8083C41.6505 50.8083 42.9884 49.4704 42.9884 47.82C42.9884 46.1696 41.6505 44.8317 40.0001 44.8317C38.3496 44.8317 37.0117 46.1696 37.0117 47.82C37.0117 49.4704 38.3496 50.8083 40.0001 50.8083Z" fill="#125EF7"/>
<path d="M48.525 36.3067H31.475C31.3283 36.3067 31.2 36.3067 31.0533 36.3067V34.18C31.0533 28.8084 32.575 25.2334 40 25.2334C47.9383 25.2334 48.9466 29.1017 48.9466 32.475C48.9466 33.19 49.515 33.7584 50.23 33.7584C50.945 33.7584 51.5133 33.19 51.5133 32.475C51.5133 25.9667 47.645 22.6667 40 22.6667C29.6783 22.6667 28.4866 29.23 28.4866 34.18V36.4717C23.3533 37.1134 21.6666 39.7167 21.6666 46.115V49.525C21.6666 57.0417 23.9583 59.3334 31.475 59.3334H48.525C56.0416 59.3334 58.3333 57.0417 58.3333 49.525V46.115C58.3333 38.5984 56.0416 36.3067 48.525 36.3067ZM40 53.3567C36.9383 53.3567 34.4633 50.8634 34.4633 47.82C34.4633 44.7584 36.9566 42.2834 40 42.2834C43.0433 42.2834 45.5366 44.7767 45.5366 47.82C45.5366 50.8817 43.0616 53.3567 40 53.3567Z" fill="#125EF7"/>
</svg>
