<svg width="56" height="57" viewBox="0 0 56 57" fill="none" xmlns="http://www.w3.org/2000/svg">
<rect width="56" height="57" rx="8" fill="white"/>
<path d="M43.5214 32.8705C41.3845 41.442 32.7029 46.6584 24.1304 44.521C15.5614 42.3841 10.345 33.702 12.4828 25.1312C14.6188 16.5587 23.3004 11.3419 31.8702 13.4788C40.4421 15.6157 45.6583 24.2987 43.5211 32.8706L43.5213 32.8705H43.5214Z" fill="#125EF7"/>
<path fill-rule="evenodd" clip-rule="evenodd" d="M35.0572 26.7204C35.3757 24.5911 33.7546 23.4466 31.5379 22.6831L32.257 19.7988L30.5013 19.3613L29.8013 22.1696C29.3397 22.0545 28.8657 21.946 28.3946 21.8385L29.0997 19.0116L27.345 18.5742L26.6255 21.4575C26.2436 21.3705 25.8684 21.2846 25.5044 21.194L25.5065 21.1849L23.0853 20.5803L22.6182 22.4555C22.6182 22.4555 23.9208 22.7541 23.8934 22.7725C24.6044 22.95 24.7329 23.4206 24.7116 23.7937L23.8924 27.0795C23.9414 27.0919 24.0049 27.1099 24.075 27.1381L24.024 27.1254C23.9807 27.1145 23.9356 27.1033 23.8894 27.0922L22.7412 31.6952C22.6544 31.9112 22.4338 32.2354 21.9367 32.1123C21.9543 32.1378 20.6606 31.7938 20.6606 31.7938L19.7889 33.8036L22.0737 34.3731C22.3239 34.4359 22.5712 34.5003 22.8159 34.5641C22.987 34.6087 23.1568 34.653 23.3255 34.6961L22.599 37.6135L24.3527 38.051L25.0722 35.1646C25.5513 35.2946 26.0162 35.4146 26.4714 35.5277L25.7543 38.4005L27.5101 38.8379L28.2366 35.9261C31.2305 36.4927 33.4817 36.2642 34.4292 33.5563C35.1927 31.376 34.3912 30.1185 32.8161 29.2984C33.9633 29.0338 34.8274 28.2793 35.0578 26.7206L35.0573 26.7202L35.0572 26.7204ZM31.0458 32.3455C30.5479 34.3458 27.4169 33.5188 25.9844 33.1404C25.8555 33.1064 25.7404 33.076 25.6422 33.0516L26.6063 29.1866C26.726 29.2165 26.8723 29.2493 27.038 29.2865L27.038 29.2865C28.5198 29.6191 31.5558 30.3004 31.0458 32.3455H31.0458ZM27.3352 27.4927C28.5296 27.8115 31.135 28.5068 31.5887 26.6888H31.5889C32.0522 24.8294 29.5202 24.2688 28.2836 23.995C28.1444 23.9642 28.0217 23.937 27.9215 23.9121L27.0474 27.4174C27.1299 27.4379 27.2267 27.4638 27.3352 27.4927Z" fill="white"/>
</svg>
