<svg width="167" height="43" viewBox="0 0 167 43" fill="none" xmlns="http://www.w3.org/2000/svg">
<path d="M0.000325978 31.9107L0.000329261 11.2102L10.3506 16.9604V26.2181L18.6308 30.8757L26.911 26.2181V16.9604L37.2613 11.2102V31.9107L18.6308 42.261L0.000325978 31.9107Z" fill="url(#paint0_linear_1_138)"/>
<path fill-rule="evenodd" clip-rule="evenodd" d="M5.17514 14.0852L0 11.2101L18.6305 0.859863L37.261 11.2101L32.0858 14.0852V29.323L18.6305 37.0858L5.17513 29.323L5.17514 14.0852ZM31.5252 14.3967L26.9107 16.9603V16.9028L18.6305 12.2451L10.3502 16.9028V16.9603L5.73577 14.3967V29.0046L18.6305 36.4439L31.5252 29.0046V14.3967Z" fill="url(#paint1_linear_1_138)"/>
<path d="M51.1223 20.6419H59.7711V24.0535H51.1223V20.6419ZM51.4312 30.7455H47.2612V12.3754H60.878V15.787H51.4312V30.7455Z" fill="#125EF7"/>
<path d="M63.701 30.7455V12.3754H67.8709V30.7455H63.701Z" fill="#125EF7"/>
<path d="M72.1471 30.7455V12.3754H75.5963L86.2272 25.6019H84.554V12.3754H88.6725V30.7455H85.249L74.5925 17.519H76.2656V30.7455H72.1471Z" fill="#125EF7"/>
<path d="M90.5675 30.7455L98.5985 12.3754H102.717L110.774 30.7455H106.398L99.8083 14.5273H101.456L94.8404 30.7455H90.5675ZM94.583 26.8091L95.6899 23.5812H104.956L106.089 26.8091H94.583Z" fill="#125EF7"/>
<path d="M112.643 30.7455V12.3754H116.092L126.723 25.6019H125.05V12.3754H129.169V30.7455H125.745L115.089 17.519H116.762V30.7455H112.643Z" fill="#125EF7"/>
<path d="M142.055 31.0604C140.665 31.0604 139.369 30.833 138.168 30.3781C136.984 29.9057 135.954 29.2409 135.079 28.3836C134.204 27.5264 133.518 26.5204 133.02 25.3657C132.539 24.211 132.299 22.9426 132.299 21.5604C132.299 20.1783 132.539 18.9099 133.02 17.7552C133.518 16.6005 134.204 15.5945 135.079 14.7372C135.971 13.88 137.01 13.2239 138.194 12.769C139.378 12.2966 140.673 12.0604 142.081 12.0604C143.642 12.0604 145.049 12.3404 146.302 12.9002C147.572 13.4426 148.636 14.2474 149.494 15.3146L146.817 17.8339C146.199 17.1166 145.513 16.583 144.758 16.2331C144.003 15.8657 143.179 15.682 142.286 15.682C141.446 15.682 140.673 15.822 139.97 16.1019C139.266 16.3818 138.657 16.7842 138.142 17.3091C137.627 17.8339 137.224 18.455 136.932 19.1723C136.658 19.8896 136.521 20.6857 136.521 21.5604C136.521 22.4352 136.658 23.2312 136.932 23.9486C137.224 24.6659 137.627 25.287 138.142 25.8118C138.657 26.3367 139.266 26.7391 139.97 27.019C140.673 27.2989 141.446 27.4389 142.286 27.4389C143.179 27.4389 144.003 27.2639 144.758 26.914C145.513 26.5466 146.199 25.9955 146.817 25.2607L149.494 27.7801C148.636 28.8473 147.572 29.6608 146.302 30.2207C145.049 30.7805 143.634 31.0604 142.055 31.0604Z" fill="#125EF7"/>
<path d="M156.145 19.7759H164.82V23.0825H156.145V19.7759ZM156.454 27.3339H166.261V30.7455H152.31V12.3754H165.927V15.787H156.454V27.3339Z" fill="#125EF7"/>
<defs>
<linearGradient id="paint0_linear_1_138" x1="6.95519" y1="14.3399" x2="34.6576" y2="56.4302" gradientUnits="userSpaceOnUse">
<stop stop-color="#2F66EE"/>
<stop offset="1" stop-color="#012377"/>
</linearGradient>
<linearGradient id="paint1_linear_1_138" x1="6.95487" y1="4.51119" x2="40.9505" y2="48.7843" gradientUnits="userSpaceOnUse">
<stop stop-color="#2F66EE"/>
<stop offset="1" stop-color="#012377"/>
</linearGradient>
</defs>
</svg>
