<svg width="56" height="57" viewBox="0 0 56 57" fill="none" xmlns="http://www.w3.org/2000/svg">
<rect width="56" height="57" rx="8" fill="white"/>
<path d="M29 34.2267H29.8667C30.7333 34.2267 31.4533 33.4533 31.4533 32.52C31.4533 31.36 31.04 31.1333 30.36 30.8933L29.0133 30.4267V34.2267H29Z" fill="#125EF7"/>
<path d="M27.96 15.5333C20.6 15.56 14.64 21.5467 14.6667 28.9067C14.6934 36.2667 20.68 42.2267 28.04 42.2C35.4 42.1733 41.36 36.1867 41.3334 28.8267C41.3067 21.4667 35.32 15.52 27.96 15.5333ZM31.0134 29C32.0534 29.36 33.4534 30.1333 33.4534 32.52C33.4534 34.5733 31.84 36.2267 29.8667 36.2267H29V37C29 37.5467 28.5467 38 28 38C27.4534 38 27 37.5467 27 37V36.2267H26.52C24.3334 36.2267 22.56 34.3867 22.56 32.12C22.56 31.5733 23.0134 31.12 23.56 31.12C24.1067 31.12 24.56 31.5733 24.56 32.12C24.56 33.28 25.44 34.2267 26.52 34.2267H27V29.72L24.9867 29C23.9467 28.64 22.5467 27.8667 22.5467 25.48C22.5467 23.4267 24.16 21.7733 26.1334 21.7733H27V21C27 20.4533 27.4534 20 28 20C28.5467 20 29 20.4533 29 21V21.7733H29.48C31.6667 21.7733 33.44 23.6133 33.44 25.88C33.44 26.4267 32.9867 26.88 32.44 26.88C31.8934 26.88 31.44 26.4267 31.44 25.88C31.44 24.72 30.56 23.7733 29.48 23.7733H29V28.28L31.0134 29Z" fill="#125EF7"/>
<path d="M24.5601 25.4933C24.5601 26.6533 24.9734 26.88 25.6534 27.12L27.0001 27.5867V23.7733H26.1334C25.2667 23.7733 24.5601 24.5467 24.5601 25.4933Z" fill="#125EF7"/>
</svg>
