<svg width="56" height="57" viewBox="0 0 56 57" fill="none" xmlns="http://www.w3.org/2000/svg">
<rect width="56" height="57" rx="8" fill="white"/>
<path d="M33.5866 15.6667H22.4133C17.56 15.6667 14.6666 18.56 14.6666 23.4134V34.5734C14.6666 39.44 17.56 42.3334 22.4133 42.3334H33.5733C38.4266 42.3334 41.32 39.44 41.32 34.5867V23.4134C41.3333 18.56 38.44 15.6667 33.5866 15.6667ZM24.1466 35.5334C24.1466 35.9067 23.8533 36.2 23.48 36.2H19.76C19.3866 36.2 19.0933 35.9067 19.0933 35.5334V29.3734C19.0933 28.5334 19.7733 27.8534 20.6133 27.8534H23.48C23.8533 27.8534 24.1466 28.1467 24.1466 28.52V35.5334ZM30.52 35.5334C30.52 35.9067 30.2266 36.2 29.8533 36.2H26.1333C25.76 36.2 25.4666 35.9067 25.4666 35.5334V23.32C25.4666 22.48 26.1466 21.8 26.9866 21.8H29.0133C29.8533 21.8 30.5333 22.48 30.5333 23.32V35.5334H30.52ZM36.9066 35.5334C36.9066 35.9067 36.6133 36.2 36.24 36.2H32.52C32.1466 36.2 31.8533 35.9067 31.8533 35.5334V30.8C31.8533 30.4267 32.1466 30.1334 32.52 30.1334H35.3866C36.2266 30.1334 36.9066 30.8134 36.9066 31.6534V35.5334Z" fill="#125EF7"/>
</svg>
