<svg width="50" height="50" viewBox="0 0 50 50" fill="none" xmlns="http://www.w3.org/2000/svg">
<rect width="50" height="50" rx="8" fill="#F7F7F7"/>
<path d="M25 13.3333C21.9434 13.3333 19.4584 15.8183 19.4584 18.875C19.4584 21.8733 21.8034 24.3 24.86 24.405C24.9534 24.3933 25.0467 24.3933 25.1167 24.405C25.14 24.405 25.1517 24.405 25.175 24.405C25.1867 24.405 25.1867 24.405 25.1984 24.405C28.185 24.3 30.53 21.8733 30.5417 18.875C30.5417 15.8183 28.0567 13.3333 25 13.3333Z" fill="#676767"/>
<path d="M30.9266 27.5083C27.6716 25.3383 22.3633 25.3383 19.085 27.5083C17.6033 28.5 16.7866 29.8417 16.7866 31.2767C16.7866 32.7117 17.6033 34.0417 19.0733 35.0217C20.7066 36.1183 22.8533 36.6667 25 36.6667C27.1466 36.6667 29.2933 36.1183 30.9266 35.0217C32.3966 34.03 33.2133 32.7 33.2133 31.2533C33.2016 29.8183 32.3966 28.4883 30.9266 27.5083Z" fill="#676767"/>
</svg>
