<svg width="587" height="375" viewBox="0 0 587 375" fill="none" xmlns="http://www.w3.org/2000/svg">
<rect width="587" height="375" rx="8" fill="white"/>
<line opacity="0.05" x1="54.9183" y1="328.5" x2="566.505" y2="328.5" stroke="#030229"/>
<line opacity="0.05" x1="54.9183" y1="277.5" x2="566.505" y2="277.5" stroke="#030229"/>
<line opacity="0.05" x1="54.9183" y1="226.5" x2="566.505" y2="226.5" stroke="#030229"/>
<line opacity="0.05" x1="54.9183" y1="175.5" x2="566.505" y2="175.5" stroke="#030229"/>
<line opacity="0.05" x1="54.9183" y1="124.5" x2="566.505" y2="124.5" stroke="#030229"/>
<line opacity="0.05" x1="54.9183" y1="73.5" x2="566.505" y2="73.5" stroke="#030229"/>
<g opacity="0.7">
<path d="M22.6975 78V70.08L23.2135 70.644H20.8015V69.6H23.8855V78H22.6975ZM29.1549 78.096C28.4989 78.096 27.9109 77.928 27.3909 77.592C26.8789 77.256 26.4709 76.768 26.1669 76.128C25.8709 75.488 25.7229 74.712 25.7229 73.8C25.7229 72.888 25.8709 72.112 26.1669 71.472C26.4709 70.832 26.8789 70.344 27.3909 70.008C27.9109 69.672 28.4989 69.504 29.1549 69.504C29.8029 69.504 30.3869 69.672 30.9069 70.008C31.4269 70.344 31.8349 70.832 32.1309 71.472C32.4269 72.112 32.5749 72.888 32.5749 73.8C32.5749 74.712 32.4269 75.488 32.1309 76.128C31.8349 76.768 31.4269 77.256 30.9069 77.592C30.3869 77.928 29.8029 78.096 29.1549 78.096ZM29.1549 77.028C29.5949 77.028 29.9789 76.908 30.3069 76.668C30.6429 76.428 30.9029 76.068 31.0869 75.588C31.2789 75.108 31.3749 74.512 31.3749 73.8C31.3749 73.088 31.2789 72.492 31.0869 72.012C30.9029 71.532 30.6429 71.172 30.3069 70.932C29.9789 70.692 29.5949 70.572 29.1549 70.572C28.7149 70.572 28.3269 70.692 27.9909 70.932C27.6549 71.172 27.3909 71.532 27.1989 72.012C27.0149 72.492 26.9229 73.088 26.9229 73.8C26.9229 74.512 27.0149 75.108 27.1989 75.588C27.3909 76.068 27.6549 76.428 27.9909 76.668C28.3269 76.908 28.7149 77.028 29.1549 77.028ZM37.1588 78.096C36.5028 78.096 35.9148 77.928 35.3948 77.592C34.8828 77.256 34.4748 76.768 34.1708 76.128C33.8748 75.488 33.7268 74.712 33.7268 73.8C33.7268 72.888 33.8748 72.112 34.1708 71.472C34.4748 70.832 34.8828 70.344 35.3948 70.008C35.9148 69.672 36.5028 69.504 37.1588 69.504C37.8068 69.504 38.3908 69.672 38.9108 70.008C39.4308 70.344 39.8388 70.832 40.1348 71.472C40.4308 72.112 40.5788 72.888 40.5788 73.8C40.5788 74.712 40.4308 75.488 40.1348 76.128C39.8388 76.768 39.4308 77.256 38.9108 77.592C38.3908 77.928 37.8068 78.096 37.1588 78.096ZM37.1588 77.028C37.5988 77.028 37.9828 76.908 38.3108 76.668C38.6468 76.428 38.9068 76.068 39.0908 75.588C39.2828 75.108 39.3788 74.512 39.3788 73.8C39.3788 73.088 39.2828 72.492 39.0908 72.012C38.9068 71.532 38.6468 71.172 38.3108 70.932C37.9828 70.692 37.5988 70.572 37.1588 70.572C36.7188 70.572 36.3308 70.692 35.9948 70.932C35.6588 71.172 35.3948 71.532 35.2028 72.012C35.0188 72.492 34.9268 73.088 34.9268 73.8C34.9268 74.512 35.0188 75.108 35.2028 75.588C35.3948 76.068 35.6588 76.428 35.9948 76.668C36.3308 76.908 36.7188 77.028 37.1588 77.028Z" fill="#909090"/>
<path d="M28.6194 129.096C27.9394 129.096 27.3514 128.996 26.8554 128.796C26.3594 128.596 25.9754 128.312 25.7034 127.944C25.4314 127.568 25.2954 127.128 25.2954 126.624C25.2954 126.128 25.4234 125.708 25.6794 125.364C25.9434 125.012 26.3234 124.748 26.8194 124.572C27.3154 124.388 27.9154 124.296 28.6194 124.296C29.3234 124.296 29.9234 124.388 30.4194 124.572C30.9234 124.748 31.3074 125.012 31.5714 125.364C31.8354 125.716 31.9674 126.136 31.9674 126.624C31.9674 127.128 31.8314 127.568 31.5594 127.944C31.2874 128.312 30.8994 128.596 30.3954 128.796C29.8914 128.996 29.2994 129.096 28.6194 129.096ZM28.6194 128.124C29.2914 128.124 29.8154 127.988 30.1914 127.716C30.5754 127.436 30.7674 127.06 30.7674 126.588C30.7674 126.124 30.5754 125.76 30.1914 125.496C29.8154 125.224 29.2914 125.088 28.6194 125.088C27.9554 125.088 27.4354 125.224 27.0594 125.496C26.6834 125.76 26.4954 126.124 26.4954 126.588C26.4954 127.06 26.6834 127.436 27.0594 127.716C27.4354 127.988 27.9554 128.124 28.6194 128.124ZM28.6194 124.944C27.9794 124.944 27.4354 124.86 26.9874 124.692C26.5394 124.516 26.1954 124.268 25.9554 123.948C25.7154 123.62 25.5954 123.232 25.5954 122.784C25.5954 122.312 25.7194 121.908 25.9674 121.572C26.2234 121.228 26.5794 120.964 27.0354 120.78C27.4914 120.596 28.0194 120.504 28.6194 120.504C29.2274 120.504 29.7594 120.596 30.2154 120.78C30.6714 120.964 31.0274 121.228 31.2834 121.572C31.5394 121.908 31.6674 122.312 31.6674 122.784C31.6674 123.232 31.5474 123.62 31.3074 123.948C31.0674 124.268 30.7194 124.516 30.2634 124.692C29.8074 124.86 29.2594 124.944 28.6194 124.944ZM28.6194 124.176C29.2034 124.176 29.6594 124.056 29.9874 123.816C30.3234 123.576 30.4914 123.248 30.4914 122.832C30.4914 122.408 30.3194 122.076 29.9754 121.836C29.6314 121.596 29.1794 121.476 28.6194 121.476C28.0594 121.476 27.6114 121.596 27.2754 121.836C26.9474 122.076 26.7834 122.408 26.7834 122.832C26.7834 123.248 26.9434 123.576 27.2634 123.816C27.5914 124.056 28.0434 124.176 28.6194 124.176ZM36.498 129.096C35.842 129.096 35.254 128.928 34.734 128.592C34.222 128.256 33.814 127.768 33.51 127.128C33.214 126.488 33.066 125.712 33.066 124.8C33.066 123.888 33.214 123.112 33.51 122.472C33.814 121.832 34.222 121.344 34.734 121.008C35.254 120.672 35.842 120.504 36.498 120.504C37.146 120.504 37.73 120.672 38.25 121.008C38.77 121.344 39.178 121.832 39.474 122.472C39.77 123.112 39.918 123.888 39.918 124.8C39.918 125.712 39.77 126.488 39.474 127.128C39.178 127.768 38.77 128.256 38.25 128.592C37.73 128.928 37.146 129.096 36.498 129.096ZM36.498 128.028C36.938 128.028 37.322 127.908 37.65 127.668C37.986 127.428 38.246 127.068 38.43 126.588C38.622 126.108 38.718 125.512 38.718 124.8C38.718 124.088 38.622 123.492 38.43 123.012C38.246 122.532 37.986 122.172 37.65 121.932C37.322 121.692 36.938 121.572 36.498 121.572C36.058 121.572 35.67 121.692 35.334 121.932C34.998 122.172 34.734 122.532 34.542 123.012C34.358 123.492 34.266 124.088 34.266 124.8C34.266 125.512 34.358 126.108 34.542 126.588C34.734 127.068 34.998 127.428 35.334 127.668C35.67 127.908 36.058 128.028 36.498 128.028Z" fill="#909090"/>
<path d="M29.1878 180.096C28.4438 180.096 27.8078 179.932 27.2798 179.604C26.7518 179.276 26.3478 178.804 26.0678 178.188C25.7958 177.564 25.6598 176.804 25.6598 175.908C25.6598 174.956 25.8278 174.152 26.1638 173.496C26.4998 172.84 26.9678 172.344 27.5678 172.008C28.1678 171.672 28.8558 171.504 29.6318 171.504C30.0318 171.504 30.4118 171.544 30.7718 171.624C31.1398 171.704 31.4558 171.828 31.7198 171.996L31.2638 172.932C31.0478 172.78 30.7998 172.676 30.5198 172.62C30.2478 172.564 29.9598 172.536 29.6558 172.536C28.7998 172.536 28.1198 172.804 27.6158 173.34C27.1118 173.868 26.8598 174.656 26.8598 175.704C26.8598 175.872 26.8678 176.072 26.8838 176.304C26.8998 176.536 26.9398 176.764 27.0038 176.988L26.5958 176.58C26.7158 176.212 26.9038 175.904 27.1598 175.656C27.4238 175.4 27.7358 175.212 28.0958 175.092C28.4638 174.964 28.8598 174.9 29.2838 174.9C29.8438 174.9 30.3398 175.004 30.7718 175.212C31.2038 175.42 31.5438 175.716 31.7918 176.1C32.0398 176.476 32.1638 176.924 32.1638 177.444C32.1638 177.98 32.0318 178.448 31.7678 178.848C31.5038 179.248 31.1478 179.556 30.6998 179.772C30.2518 179.988 29.7478 180.096 29.1878 180.096ZM29.1398 179.124C29.5078 179.124 29.8278 179.056 30.0998 178.92C30.3798 178.784 30.5998 178.596 30.7598 178.356C30.9198 178.108 30.9998 177.82 30.9998 177.492C30.9998 176.996 30.8278 176.604 30.4838 176.316C30.1398 176.02 29.6718 175.872 29.0798 175.872C28.6958 175.872 28.3598 175.944 28.0718 176.088C27.7838 176.232 27.5558 176.428 27.3878 176.676C27.2278 176.916 27.1478 177.192 27.1478 177.504C27.1478 177.792 27.2238 178.06 27.3758 178.308C27.5278 178.548 27.7518 178.744 28.0478 178.896C28.3438 179.048 28.7078 179.124 29.1398 179.124ZM36.498 180.096C35.842 180.096 35.254 179.928 34.734 179.592C34.222 179.256 33.814 178.768 33.51 178.128C33.214 177.488 33.066 176.712 33.066 175.8C33.066 174.888 33.214 174.112 33.51 173.472C33.814 172.832 34.222 172.344 34.734 172.008C35.254 171.672 35.842 171.504 36.498 171.504C37.146 171.504 37.73 171.672 38.25 172.008C38.77 172.344 39.178 172.832 39.474 173.472C39.77 174.112 39.918 174.888 39.918 175.8C39.918 176.712 39.77 177.488 39.474 178.128C39.178 178.768 38.77 179.256 38.25 179.592C37.73 179.928 37.146 180.096 36.498 180.096ZM36.498 179.028C36.938 179.028 37.322 178.908 37.65 178.668C37.986 178.428 38.246 178.068 38.43 177.588C38.622 177.108 38.718 176.512 38.718 175.8C38.718 175.088 38.622 174.492 38.43 174.012C38.246 173.532 37.986 173.172 37.65 172.932C37.322 172.692 36.938 172.572 36.498 172.572C36.058 172.572 35.67 172.692 35.334 172.932C34.998 173.172 34.734 173.532 34.542 174.012C34.358 174.492 34.266 175.088 34.266 175.8C34.266 176.512 34.358 177.108 34.542 177.588C34.734 178.068 34.998 178.428 35.334 178.668C35.67 178.908 36.058 179.028 36.498 179.028Z" fill="#909090"/>
<path d="M24.9373 228.936V228.096L29.2333 222.6H30.5293L26.2693 228.096L25.6573 227.904H32.3653V228.936H24.9373ZM29.6053 231V228.936L29.6413 227.904V226.08H30.7693V231H29.6053ZM36.5166 231.096C35.8606 231.096 35.2726 230.928 34.7526 230.592C34.2406 230.256 33.8326 229.768 33.5286 229.128C33.2326 228.488 33.0846 227.712 33.0846 226.8C33.0846 225.888 33.2326 225.112 33.5286 224.472C33.8326 223.832 34.2406 223.344 34.7526 223.008C35.2726 222.672 35.8606 222.504 36.5166 222.504C37.1646 222.504 37.7486 222.672 38.2686 223.008C38.7886 223.344 39.1966 223.832 39.4926 224.472C39.7886 225.112 39.9366 225.888 39.9366 226.8C39.9366 227.712 39.7886 228.488 39.4926 229.128C39.1966 229.768 38.7886 230.256 38.2686 230.592C37.7486 230.928 37.1646 231.096 36.5166 231.096ZM36.5166 230.028C36.9566 230.028 37.3406 229.908 37.6686 229.668C38.0046 229.428 38.2646 229.068 38.4486 228.588C38.6406 228.108 38.7366 227.512 38.7366 226.8C38.7366 226.088 38.6406 225.492 38.4486 225.012C38.2646 224.532 38.0046 224.172 37.6686 223.932C37.3406 223.692 36.9566 223.572 36.5166 223.572C36.0766 223.572 35.6886 223.692 35.3526 223.932C35.0166 224.172 34.7526 224.532 34.5606 225.012C34.3766 225.492 34.2846 226.088 34.2846 226.8C34.2846 227.512 34.3766 228.108 34.5606 228.588C34.7526 229.068 35.0166 229.428 35.3526 229.668C35.6886 229.908 36.0766 230.028 36.5166 230.028Z" fill="#909090"/>
<path d="M26.8356 282V281.184L30.2556 277.884C30.5596 277.596 30.7836 277.344 30.9276 277.128C31.0796 276.904 31.1796 276.7 31.2276 276.516C31.2836 276.324 31.3116 276.14 31.3116 275.964C31.3116 275.532 31.1596 275.192 30.8556 274.944C30.5516 274.696 30.1076 274.572 29.5236 274.572C29.0756 274.572 28.6716 274.648 28.3116 274.8C27.9516 274.944 27.6396 275.172 27.3756 275.484L26.5596 274.776C26.8796 274.368 27.3076 274.056 27.8436 273.84C28.3876 273.616 28.9836 273.504 29.6316 273.504C30.2156 273.504 30.7236 273.6 31.1556 273.792C31.5876 273.976 31.9196 274.244 32.1516 274.596C32.3916 274.948 32.5116 275.364 32.5116 275.844C32.5116 276.116 32.4756 276.384 32.4036 276.648C32.3316 276.912 32.1956 277.192 31.9956 277.488C31.7956 277.784 31.5076 278.116 31.1316 278.484L28.0836 281.424L27.7956 280.956H32.8716V282H26.8356ZM37.2785 282.096C36.6225 282.096 36.0345 281.928 35.5145 281.592C35.0025 281.256 34.5945 280.768 34.2905 280.128C33.9945 279.488 33.8465 278.712 33.8465 277.8C33.8465 276.888 33.9945 276.112 34.2905 275.472C34.5945 274.832 35.0025 274.344 35.5145 274.008C36.0345 273.672 36.6225 273.504 37.2785 273.504C37.9265 273.504 38.5105 273.672 39.0305 274.008C39.5505 274.344 39.9585 274.832 40.2545 275.472C40.5505 276.112 40.6985 276.888 40.6985 277.8C40.6985 278.712 40.5505 279.488 40.2545 280.128C39.9585 280.768 39.5505 281.256 39.0305 281.592C38.5105 281.928 37.9265 282.096 37.2785 282.096ZM37.2785 281.028C37.7185 281.028 38.1025 280.908 38.4305 280.668C38.7665 280.428 39.0265 280.068 39.2105 279.588C39.4025 279.108 39.4985 278.512 39.4985 277.8C39.4985 277.088 39.4025 276.492 39.2105 276.012C39.0265 275.532 38.7665 275.172 38.4305 274.932C38.1025 274.692 37.7185 274.572 37.2785 274.572C36.8385 274.572 36.4505 274.692 36.1145 274.932C35.7785 275.172 35.5145 275.532 35.3225 276.012C35.1385 276.492 35.0465 277.088 35.0465 277.8C35.0465 278.512 35.1385 279.108 35.3225 279.588C35.5145 280.068 35.7785 280.428 36.1145 280.668C36.4505 280.908 36.8385 281.028 37.2785 281.028Z" fill="#909090"/>
<path d="M36.83 333.096C36.174 333.096 35.586 332.928 35.066 332.592C34.554 332.256 34.146 331.768 33.842 331.128C33.546 330.488 33.398 329.712 33.398 328.8C33.398 327.888 33.546 327.112 33.842 326.472C34.146 325.832 34.554 325.344 35.066 325.008C35.586 324.672 36.174 324.504 36.83 324.504C37.478 324.504 38.062 324.672 38.582 325.008C39.102 325.344 39.51 325.832 39.806 326.472C40.102 327.112 40.25 327.888 40.25 328.8C40.25 329.712 40.102 330.488 39.806 331.128C39.51 331.768 39.102 332.256 38.582 332.592C38.062 332.928 37.478 333.096 36.83 333.096ZM36.83 332.028C37.27 332.028 37.654 331.908 37.982 331.668C38.318 331.428 38.578 331.068 38.762 330.588C38.954 330.108 39.05 329.512 39.05 328.8C39.05 328.088 38.954 327.492 38.762 327.012C38.578 326.532 38.318 326.172 37.982 325.932C37.654 325.692 37.27 325.572 36.83 325.572C36.39 325.572 36.002 325.692 35.666 325.932C35.33 326.172 35.066 326.532 34.874 327.012C34.69 327.492 34.598 328.088 34.598 328.8C34.598 329.512 34.69 330.108 34.874 330.588C35.066 331.068 35.33 331.428 35.666 331.668C36.002 331.908 36.39 332.028 36.83 332.028Z" fill="#909090"/>
</g>
<g opacity="0.7">
<path d="M57.7099 356V348.08L58.2259 348.644H55.8139V347.6H58.8979V356H57.7099ZM64.1673 356.096C63.5113 356.096 62.9233 355.928 62.4033 355.592C61.8913 355.256 61.4833 354.768 61.1793 354.128C60.8833 353.488 60.7353 352.712 60.7353 351.8C60.7353 350.888 60.8833 350.112 61.1793 349.472C61.4833 348.832 61.8913 348.344 62.4033 348.008C62.9233 347.672 63.5113 347.504 64.1673 347.504C64.8153 347.504 65.3993 347.672 65.9193 348.008C66.4393 348.344 66.8473 348.832 67.1433 349.472C67.4393 350.112 67.5873 350.888 67.5873 351.8C67.5873 352.712 67.4393 353.488 67.1433 354.128C66.8473 354.768 66.4393 355.256 65.9193 355.592C65.3993 355.928 64.8153 356.096 64.1673 356.096ZM64.1673 355.028C64.6073 355.028 64.9913 354.908 65.3193 354.668C65.6553 354.428 65.9153 354.068 66.0993 353.588C66.2913 353.108 66.3873 352.512 66.3873 351.8C66.3873 351.088 66.2913 350.492 66.0993 350.012C65.9153 349.532 65.6553 349.172 65.3193 348.932C64.9913 348.692 64.6073 348.572 64.1673 348.572C63.7273 348.572 63.3393 348.692 63.0033 348.932C62.6673 349.172 62.4033 349.532 62.2113 350.012C62.0273 350.492 61.9353 351.088 61.9353 351.8C61.9353 352.512 62.0273 353.108 62.2113 353.588C62.4033 354.068 62.6673 354.428 63.0033 354.668C63.3393 354.908 63.7273 355.028 64.1673 355.028ZM73.2032 356V354.656L73.1432 354.404V352.112C73.1432 351.624 72.9992 351.248 72.7112 350.984C72.4312 350.712 72.0072 350.576 71.4392 350.576C71.0632 350.576 70.6952 350.64 70.3352 350.768C69.9752 350.888 69.6712 351.052 69.4232 351.26L68.9432 350.396C69.2712 350.132 69.6632 349.932 70.1192 349.796C70.5832 349.652 71.0672 349.58 71.5712 349.58C72.4432 349.58 73.1152 349.792 73.5872 350.216C74.0592 350.64 74.2952 351.288 74.2952 352.16V356H73.2032ZM71.1152 356.072C70.6432 356.072 70.2272 355.992 69.8672 355.832C69.5152 355.672 69.2432 355.452 69.0512 355.172C68.8592 354.884 68.7632 354.56 68.7632 354.2C68.7632 353.856 68.8432 353.544 69.0032 353.264C69.1712 352.984 69.4392 352.76 69.8072 352.592C70.1832 352.424 70.6872 352.34 71.3192 352.34H73.3352V353.168H71.3672C70.7912 353.168 70.4032 353.264 70.2032 353.456C70.0032 353.648 69.9032 353.88 69.9032 354.152C69.9032 354.464 70.0272 354.716 70.2752 354.908C70.5232 355.092 70.8672 355.184 71.3072 355.184C71.7392 355.184 72.1152 355.088 72.4352 354.896C72.7632 354.704 72.9992 354.424 73.1432 354.056L73.3712 354.848C73.2192 355.224 72.9512 355.524 72.5672 355.748C72.1832 355.964 71.6992 356.072 71.1152 356.072ZM84.3831 349.58C84.8951 349.58 85.3471 349.68 85.7391 349.88C86.1311 350.08 86.4351 350.384 86.6511 350.792C86.8751 351.2 86.9871 351.716 86.9871 352.34V356H85.8351V352.472C85.8351 351.856 85.6911 351.392 85.4031 351.08C85.1151 350.768 84.7111 350.612 84.1911 350.612C83.8071 350.612 83.4711 350.692 83.1831 350.852C82.8951 351.012 82.6711 351.248 82.5111 351.56C82.3591 351.872 82.2831 352.26 82.2831 352.724V356H81.1311V352.472C81.1311 351.856 80.9871 351.392 80.6991 351.08C80.4191 350.768 80.0151 350.612 79.4871 350.612C79.1111 350.612 78.7791 350.692 78.4911 350.852C78.2031 351.012 77.9791 351.248 77.8191 351.56C77.6591 351.872 77.5791 352.26 77.5791 352.724V356H76.4271V349.64H77.5311V351.332L77.3511 350.9C77.5511 350.484 77.8591 350.16 78.2751 349.928C78.6911 349.696 79.1751 349.58 79.7271 349.58C80.3351 349.58 80.8591 349.732 81.2991 350.036C81.7391 350.332 82.0271 350.784 82.1631 351.392L81.6951 351.2C81.8871 350.712 82.2231 350.32 82.7031 350.024C83.1831 349.728 83.7431 349.58 84.3831 349.58Z" fill="#909090"/>
<path d="M125.751 356V348.08L126.267 348.644H123.855V347.6H126.939V356H125.751ZM130.192 356V348.08L130.708 348.644H128.296V347.6H131.38V356H130.192ZM137.682 356V354.656L137.622 354.404V352.112C137.622 351.624 137.478 351.248 137.19 350.984C136.91 350.712 136.486 350.576 135.918 350.576C135.542 350.576 135.174 350.64 134.814 350.768C134.454 350.888 134.15 351.052 133.902 351.26L133.422 350.396C133.75 350.132 134.142 349.932 134.598 349.796C135.062 349.652 135.546 349.58 136.05 349.58C136.922 349.58 137.594 349.792 138.066 350.216C138.538 350.64 138.774 351.288 138.774 352.16V356H137.682ZM135.594 356.072C135.122 356.072 134.706 355.992 134.346 355.832C133.994 355.672 133.722 355.452 133.53 355.172C133.338 354.884 133.242 354.56 133.242 354.2C133.242 353.856 133.322 353.544 133.482 353.264C133.65 352.984 133.918 352.76 134.286 352.592C134.662 352.424 135.166 352.34 135.798 352.34H137.814V353.168H135.846C135.27 353.168 134.882 353.264 134.682 353.456C134.482 353.648 134.382 353.88 134.382 354.152C134.382 354.464 134.506 354.716 134.754 354.908C135.002 355.092 135.346 355.184 135.786 355.184C136.218 355.184 136.594 355.088 136.914 354.896C137.242 354.704 137.478 354.424 137.622 354.056L137.85 354.848C137.698 355.224 137.43 355.524 137.046 355.748C136.662 355.964 136.178 356.072 135.594 356.072ZM148.862 349.58C149.374 349.58 149.826 349.68 150.218 349.88C150.61 350.08 150.914 350.384 151.13 350.792C151.354 351.2 151.466 351.716 151.466 352.34V356H150.314V352.472C150.314 351.856 150.17 351.392 149.882 351.08C149.594 350.768 149.19 350.612 148.67 350.612C148.286 350.612 147.95 350.692 147.662 350.852C147.374 351.012 147.15 351.248 146.99 351.56C146.838 351.872 146.762 352.26 146.762 352.724V356H145.61V352.472C145.61 351.856 145.466 351.392 145.178 351.08C144.898 350.768 144.494 350.612 143.966 350.612C143.59 350.612 143.258 350.692 142.97 350.852C142.682 351.012 142.458 351.248 142.298 351.56C142.138 351.872 142.058 352.26 142.058 352.724V356H140.906V349.64H142.01V351.332L141.83 350.9C142.03 350.484 142.338 350.16 142.754 349.928C143.17 349.696 143.654 349.58 144.206 349.58C144.814 349.58 145.338 349.732 145.778 350.036C146.218 350.332 146.506 350.784 146.642 351.392L146.174 351.2C146.366 350.712 146.702 350.32 147.182 350.024C147.662 349.728 148.222 349.58 148.862 349.58Z" fill="#909090"/>
<path d="M189.215 356V348.08L189.731 348.644H187.319V347.6H190.403V356H189.215ZM192.108 356V355.184L195.528 351.884C195.832 351.596 196.056 351.344 196.2 351.128C196.352 350.904 196.452 350.7 196.5 350.516C196.556 350.324 196.584 350.14 196.584 349.964C196.584 349.532 196.432 349.192 196.128 348.944C195.824 348.696 195.38 348.572 194.796 348.572C194.348 348.572 193.944 348.648 193.584 348.8C193.224 348.944 192.912 349.172 192.648 349.484L191.832 348.776C192.152 348.368 192.58 348.056 193.116 347.84C193.66 347.616 194.256 347.504 194.904 347.504C195.488 347.504 195.996 347.6 196.428 347.792C196.86 347.976 197.192 348.244 197.424 348.596C197.664 348.948 197.784 349.364 197.784 349.844C197.784 350.116 197.748 350.384 197.676 350.648C197.604 350.912 197.468 351.192 197.268 351.488C197.068 351.784 196.78 352.116 196.404 352.484L193.356 355.424L193.068 354.956H198.144V356H192.108ZM203.595 356V354.656L203.535 354.404V352.112C203.535 351.624 203.391 351.248 203.103 350.984C202.823 350.712 202.399 350.576 201.831 350.576C201.455 350.576 201.087 350.64 200.727 350.768C200.367 350.888 200.063 351.052 199.815 351.26L199.335 350.396C199.663 350.132 200.055 349.932 200.511 349.796C200.975 349.652 201.459 349.58 201.963 349.58C202.835 349.58 203.507 349.792 203.979 350.216C204.451 350.64 204.687 351.288 204.687 352.16V356H203.595ZM201.507 356.072C201.035 356.072 200.619 355.992 200.259 355.832C199.907 355.672 199.635 355.452 199.443 355.172C199.251 354.884 199.155 354.56 199.155 354.2C199.155 353.856 199.235 353.544 199.395 353.264C199.563 352.984 199.831 352.76 200.199 352.592C200.575 352.424 201.079 352.34 201.711 352.34H203.727V353.168H201.759C201.183 353.168 200.795 353.264 200.595 353.456C200.395 353.648 200.295 353.88 200.295 354.152C200.295 354.464 200.419 354.716 200.667 354.908C200.915 355.092 201.259 355.184 201.699 355.184C202.131 355.184 202.507 355.088 202.827 354.896C203.155 354.704 203.391 354.424 203.535 354.056L203.763 354.848C203.611 355.224 203.343 355.524 202.959 355.748C202.575 355.964 202.091 356.072 201.507 356.072ZM214.775 349.58C215.287 349.58 215.739 349.68 216.131 349.88C216.523 350.08 216.827 350.384 217.043 350.792C217.267 351.2 217.379 351.716 217.379 352.34V356H216.227V352.472C216.227 351.856 216.083 351.392 215.795 351.08C215.507 350.768 215.103 350.612 214.583 350.612C214.199 350.612 213.863 350.692 213.575 350.852C213.287 351.012 213.063 351.248 212.903 351.56C212.751 351.872 212.675 352.26 212.675 352.724V356H211.523V352.472C211.523 351.856 211.379 351.392 211.091 351.08C210.811 350.768 210.407 350.612 209.879 350.612C209.503 350.612 209.171 350.692 208.883 350.852C208.595 351.012 208.371 351.248 208.211 351.56C208.051 351.872 207.971 352.26 207.971 352.724V356H206.819V349.64H207.923V351.332L207.743 350.9C207.943 350.484 208.251 350.16 208.667 349.928C209.083 349.696 209.567 349.58 210.119 349.58C210.727 349.58 211.251 349.732 211.691 350.036C212.131 350.332 212.419 350.784 212.555 351.392L212.087 351.2C212.279 350.712 212.615 350.32 213.095 350.024C213.575 349.728 214.135 349.58 214.775 349.58Z" fill="#909090"/>
<path d="M257.717 356.096C257.061 356.096 256.473 355.928 255.953 355.592C255.441 355.256 255.033 354.768 254.729 354.128C254.433 353.488 254.285 352.712 254.285 351.8C254.285 350.888 254.433 350.112 254.729 349.472C255.033 348.832 255.441 348.344 255.953 348.008C256.473 347.672 257.061 347.504 257.717 347.504C258.365 347.504 258.949 347.672 259.469 348.008C259.989 348.344 260.397 348.832 260.693 349.472C260.989 350.112 261.137 350.888 261.137 351.8C261.137 352.712 260.989 353.488 260.693 354.128C260.397 354.768 259.989 355.256 259.469 355.592C258.949 355.928 258.365 356.096 257.717 356.096ZM257.717 355.028C258.157 355.028 258.541 354.908 258.869 354.668C259.205 354.428 259.465 354.068 259.649 353.588C259.841 353.108 259.937 352.512 259.937 351.8C259.937 351.088 259.841 350.492 259.649 350.012C259.465 349.532 259.205 349.172 258.869 348.932C258.541 348.692 258.157 348.572 257.717 348.572C257.277 348.572 256.889 348.692 256.553 348.932C256.217 349.172 255.953 349.532 255.761 350.012C255.577 350.492 255.485 351.088 255.485 351.8C255.485 352.512 255.577 353.108 255.761 353.588C255.953 354.068 256.217 354.428 256.553 354.668C256.889 354.908 257.277 355.028 257.717 355.028ZM263.705 356V348.08L264.221 348.644H261.809V347.6H264.893V356H263.705ZM271.194 356V354.656L271.134 354.404V352.112C271.134 351.624 270.99 351.248 270.702 350.984C270.422 350.712 269.998 350.576 269.43 350.576C269.054 350.576 268.686 350.64 268.326 350.768C267.966 350.888 267.662 351.052 267.414 351.26L266.934 350.396C267.262 350.132 267.654 349.932 268.11 349.796C268.574 349.652 269.058 349.58 269.562 349.58C270.434 349.58 271.106 349.792 271.578 350.216C272.05 350.64 272.286 351.288 272.286 352.16V356H271.194ZM269.106 356.072C268.634 356.072 268.218 355.992 267.858 355.832C267.506 355.672 267.234 355.452 267.042 355.172C266.85 354.884 266.754 354.56 266.754 354.2C266.754 353.856 266.834 353.544 266.994 353.264C267.162 352.984 267.43 352.76 267.798 352.592C268.174 352.424 268.678 352.34 269.31 352.34H271.326V353.168H269.358C268.782 353.168 268.394 353.264 268.194 353.456C267.994 353.648 267.894 353.88 267.894 354.152C267.894 354.464 268.018 354.716 268.266 354.908C268.514 355.092 268.858 355.184 269.298 355.184C269.73 355.184 270.106 355.088 270.426 354.896C270.754 354.704 270.99 354.424 271.134 354.056L271.362 354.848C271.21 355.224 270.942 355.524 270.558 355.748C270.174 355.964 269.69 356.072 269.106 356.072ZM282.374 349.58C282.886 349.58 283.338 349.68 283.73 349.88C284.122 350.08 284.426 350.384 284.642 350.792C284.866 351.2 284.978 351.716 284.978 352.34V356H283.826V352.472C283.826 351.856 283.682 351.392 283.394 351.08C283.106 350.768 282.702 350.612 282.182 350.612C281.798 350.612 281.462 350.692 281.174 350.852C280.886 351.012 280.662 351.248 280.502 351.56C280.35 351.872 280.274 352.26 280.274 352.724V356H279.122V352.472C279.122 351.856 278.978 351.392 278.69 351.08C278.41 350.768 278.006 350.612 277.478 350.612C277.102 350.612 276.77 350.692 276.482 350.852C276.194 351.012 275.97 351.248 275.81 351.56C275.65 351.872 275.57 352.26 275.57 352.724V356H274.418V349.64H275.522V351.332L275.342 350.9C275.542 350.484 275.85 350.16 276.266 349.928C276.682 349.696 277.166 349.58 277.718 349.58C278.326 349.58 278.85 349.732 279.29 350.036C279.73 350.332 280.018 350.784 280.154 351.392L279.686 351.2C279.878 350.712 280.214 350.32 280.694 350.024C281.174 349.728 281.734 349.58 282.374 349.58Z" fill="#909090"/>
<path d="M325.211 356.096C324.555 356.096 323.967 355.928 323.447 355.592C322.935 355.256 322.527 354.768 322.223 354.128C321.927 353.488 321.779 352.712 321.779 351.8C321.779 350.888 321.927 350.112 322.223 349.472C322.527 348.832 322.935 348.344 323.447 348.008C323.967 347.672 324.555 347.504 325.211 347.504C325.859 347.504 326.443 347.672 326.963 348.008C327.483 348.344 327.891 348.832 328.187 349.472C328.483 350.112 328.631 350.888 328.631 351.8C328.631 352.712 328.483 353.488 328.187 354.128C327.891 354.768 327.483 355.256 326.963 355.592C326.443 355.928 325.859 356.096 325.211 356.096ZM325.211 355.028C325.651 355.028 326.035 354.908 326.363 354.668C326.699 354.428 326.959 354.068 327.143 353.588C327.335 353.108 327.431 352.512 327.431 351.8C327.431 351.088 327.335 350.492 327.143 350.012C326.959 349.532 326.699 349.172 326.363 348.932C326.035 348.692 325.651 348.572 325.211 348.572C324.771 348.572 324.383 348.692 324.047 348.932C323.711 349.172 323.447 349.532 323.255 350.012C323.071 350.492 322.979 351.088 322.979 351.8C322.979 352.512 323.071 353.108 323.255 353.588C323.447 354.068 323.711 354.428 324.047 354.668C324.383 354.908 324.771 355.028 325.211 355.028ZM329.651 356V355.184L333.071 351.884C333.375 351.596 333.599 351.344 333.743 351.128C333.895 350.904 333.995 350.7 334.043 350.516C334.099 350.324 334.127 350.14 334.127 349.964C334.127 349.532 333.975 349.192 333.671 348.944C333.367 348.696 332.923 348.572 332.339 348.572C331.891 348.572 331.487 348.648 331.127 348.8C330.767 348.944 330.455 349.172 330.191 349.484L329.375 348.776C329.695 348.368 330.123 348.056 330.659 347.84C331.203 347.616 331.799 347.504 332.447 347.504C333.031 347.504 333.539 347.6 333.971 347.792C334.403 347.976 334.735 348.244 334.967 348.596C335.207 348.948 335.327 349.364 335.327 349.844C335.327 350.116 335.291 350.384 335.219 350.648C335.147 350.912 335.011 351.192 334.811 351.488C334.611 351.784 334.323 352.116 333.947 352.484L330.899 355.424L330.611 354.956H335.687V356H329.651ZM341.137 356V354.656L341.077 354.404V352.112C341.077 351.624 340.933 351.248 340.645 350.984C340.365 350.712 339.941 350.576 339.373 350.576C338.997 350.576 338.629 350.64 338.269 350.768C337.909 350.888 337.605 351.052 337.357 351.26L336.877 350.396C337.205 350.132 337.597 349.932 338.053 349.796C338.517 349.652 339.001 349.58 339.505 349.58C340.377 349.58 341.049 349.792 341.521 350.216C341.993 350.64 342.229 351.288 342.229 352.16V356H341.137ZM339.049 356.072C338.577 356.072 338.161 355.992 337.801 355.832C337.449 355.672 337.177 355.452 336.985 355.172C336.793 354.884 336.697 354.56 336.697 354.2C336.697 353.856 336.777 353.544 336.937 353.264C337.105 352.984 337.373 352.76 337.741 352.592C338.117 352.424 338.621 352.34 339.253 352.34H341.269V353.168H339.301C338.725 353.168 338.337 353.264 338.137 353.456C337.937 353.648 337.837 353.88 337.837 354.152C337.837 354.464 337.961 354.716 338.209 354.908C338.457 355.092 338.801 355.184 339.241 355.184C339.673 355.184 340.049 355.088 340.369 354.896C340.697 354.704 340.933 354.424 341.077 354.056L341.305 354.848C341.153 355.224 340.885 355.524 340.501 355.748C340.117 355.964 339.633 356.072 339.049 356.072ZM352.317 349.58C352.829 349.58 353.281 349.68 353.673 349.88C354.065 350.08 354.369 350.384 354.585 350.792C354.809 351.2 354.921 351.716 354.921 352.34V356H353.769V352.472C353.769 351.856 353.625 351.392 353.337 351.08C353.049 350.768 352.645 350.612 352.125 350.612C351.741 350.612 351.405 350.692 351.117 350.852C350.829 351.012 350.605 351.248 350.445 351.56C350.293 351.872 350.217 352.26 350.217 352.724V356H349.065V352.472C349.065 351.856 348.921 351.392 348.633 351.08C348.353 350.768 347.949 350.612 347.421 350.612C347.045 350.612 346.713 350.692 346.425 350.852C346.137 351.012 345.913 351.248 345.753 351.56C345.593 351.872 345.513 352.26 345.513 352.724V356H344.361V349.64H345.465V351.332L345.285 350.9C345.485 350.484 345.793 350.16 346.209 349.928C346.625 349.696 347.109 349.58 347.661 349.58C348.269 349.58 348.793 349.732 349.233 350.036C349.673 350.332 349.961 350.784 350.097 351.392L349.629 351.2C349.821 350.712 350.157 350.32 350.637 350.024C351.117 349.728 351.677 349.58 352.317 349.58Z" fill="#909090"/>
<path d="M394.719 356.096C394.063 356.096 393.475 355.928 392.955 355.592C392.443 355.256 392.035 354.768 391.731 354.128C391.435 353.488 391.287 352.712 391.287 351.8C391.287 350.888 391.435 350.112 391.731 349.472C392.035 348.832 392.443 348.344 392.955 348.008C393.475 347.672 394.063 347.504 394.719 347.504C395.367 347.504 395.951 347.672 396.471 348.008C396.991 348.344 397.399 348.832 397.695 349.472C397.991 350.112 398.139 350.888 398.139 351.8C398.139 352.712 397.991 353.488 397.695 354.128C397.399 354.768 396.991 355.256 396.471 355.592C395.951 355.928 395.367 356.096 394.719 356.096ZM394.719 355.028C395.159 355.028 395.543 354.908 395.871 354.668C396.207 354.428 396.467 354.068 396.651 353.588C396.843 353.108 396.939 352.512 396.939 351.8C396.939 351.088 396.843 350.492 396.651 350.012C396.467 349.532 396.207 349.172 395.871 348.932C395.543 348.692 395.159 348.572 394.719 348.572C394.279 348.572 393.891 348.692 393.555 348.932C393.219 349.172 392.955 349.532 392.763 350.012C392.579 350.492 392.487 351.088 392.487 351.8C392.487 352.512 392.579 353.108 392.763 353.588C392.955 354.068 393.219 354.428 393.555 354.668C393.891 354.908 394.279 355.028 394.719 355.028ZM401.742 356.096C401.15 356.096 400.574 356.004 400.014 355.82C399.462 355.636 399.01 355.388 398.658 355.076L399.21 354.128C399.49 354.392 399.854 354.608 400.302 354.776C400.75 354.944 401.23 355.028 401.742 355.028C402.366 355.028 402.85 354.896 403.194 354.632C403.546 354.36 403.722 353.996 403.722 353.54C403.722 353.1 403.554 352.748 403.218 352.484C402.89 352.212 402.366 352.076 401.646 352.076H400.974V351.236L403.47 348.164L403.638 348.644H399.042V347.6H404.586V348.416L402.102 351.476L401.478 351.104H401.874C402.89 351.104 403.65 351.332 404.154 351.788C404.666 352.244 404.922 352.824 404.922 353.528C404.922 354 404.806 354.432 404.574 354.824C404.342 355.216 403.99 355.528 403.518 355.76C403.054 355.984 402.462 356.096 401.742 356.096ZM410.505 356V354.656L410.445 354.404V352.112C410.445 351.624 410.301 351.248 410.013 350.984C409.733 350.712 409.309 350.576 408.741 350.576C408.365 350.576 407.997 350.64 407.637 350.768C407.277 350.888 406.973 351.052 406.725 351.26L406.245 350.396C406.573 350.132 406.965 349.932 407.421 349.796C407.885 349.652 408.369 349.58 408.873 349.58C409.745 349.58 410.417 349.792 410.889 350.216C411.361 350.64 411.597 351.288 411.597 352.16V356H410.505ZM408.417 356.072C407.945 356.072 407.529 355.992 407.169 355.832C406.817 355.672 406.545 355.452 406.353 355.172C406.161 354.884 406.065 354.56 406.065 354.2C406.065 353.856 406.145 353.544 406.305 353.264C406.473 352.984 406.741 352.76 407.109 352.592C407.485 352.424 407.989 352.34 408.621 352.34H410.637V353.168H408.669C408.093 353.168 407.705 353.264 407.505 353.456C407.305 353.648 407.205 353.88 407.205 354.152C407.205 354.464 407.329 354.716 407.577 354.908C407.825 355.092 408.169 355.184 408.609 355.184C409.041 355.184 409.417 355.088 409.737 354.896C410.065 354.704 410.301 354.424 410.445 354.056L410.673 354.848C410.521 355.224 410.253 355.524 409.869 355.748C409.485 355.964 409.001 356.072 408.417 356.072ZM421.685 349.58C422.197 349.58 422.649 349.68 423.041 349.88C423.433 350.08 423.737 350.384 423.953 350.792C424.177 351.2 424.289 351.716 424.289 352.34V356H423.137V352.472C423.137 351.856 422.993 351.392 422.705 351.08C422.417 350.768 422.013 350.612 421.493 350.612C421.109 350.612 420.773 350.692 420.485 350.852C420.197 351.012 419.973 351.248 419.813 351.56C419.661 351.872 419.585 352.26 419.585 352.724V356H418.433V352.472C418.433 351.856 418.289 351.392 418.001 351.08C417.721 350.768 417.317 350.612 416.789 350.612C416.413 350.612 416.081 350.692 415.793 350.852C415.505 351.012 415.281 351.248 415.121 351.56C414.961 351.872 414.881 352.26 414.881 352.724V356H413.729V349.64H414.833V351.332L414.653 350.9C414.853 350.484 415.161 350.16 415.577 349.928C415.993 349.696 416.477 349.58 417.029 349.58C417.637 349.58 418.161 349.732 418.601 350.036C419.041 350.332 419.329 350.784 419.465 351.392L418.997 351.2C419.189 350.712 419.525 350.32 420.005 350.024C420.485 349.728 421.045 349.58 421.685 349.58Z" fill="#909090"/>
<path d="M464.227 356.096C463.571 356.096 462.983 355.928 462.463 355.592C461.951 355.256 461.543 354.768 461.239 354.128C460.943 353.488 460.795 352.712 460.795 351.8C460.795 350.888 460.943 350.112 461.239 349.472C461.543 348.832 461.951 348.344 462.463 348.008C462.983 347.672 463.571 347.504 464.227 347.504C464.875 347.504 465.459 347.672 465.979 348.008C466.499 348.344 466.907 348.832 467.203 349.472C467.499 350.112 467.647 350.888 467.647 351.8C467.647 352.712 467.499 353.488 467.203 354.128C466.907 354.768 466.499 355.256 465.979 355.592C465.459 355.928 464.875 356.096 464.227 356.096ZM464.227 355.028C464.667 355.028 465.051 354.908 465.379 354.668C465.715 354.428 465.975 354.068 466.159 353.588C466.351 353.108 466.447 352.512 466.447 351.8C466.447 351.088 466.351 350.492 466.159 350.012C465.975 349.532 465.715 349.172 465.379 348.932C465.051 348.692 464.667 348.572 464.227 348.572C463.787 348.572 463.399 348.692 463.063 348.932C462.727 349.172 462.463 349.532 462.271 350.012C462.087 350.492 461.995 351.088 461.995 351.8C461.995 352.512 462.087 353.108 462.271 353.588C462.463 354.068 462.727 354.428 463.063 354.668C463.399 354.908 463.787 355.028 464.227 355.028ZM468.679 353.936V353.096L472.975 347.6H474.271L470.011 353.096L469.399 352.904H476.107V353.936H468.679ZM473.347 356V353.936L473.383 352.904V351.08H474.511V356H473.347ZM481.63 356V354.656L481.57 354.404V352.112C481.57 351.624 481.426 351.248 481.138 350.984C480.858 350.712 480.434 350.576 479.866 350.576C479.49 350.576 479.122 350.64 478.762 350.768C478.402 350.888 478.098 351.052 477.85 351.26L477.37 350.396C477.698 350.132 478.09 349.932 478.546 349.796C479.01 349.652 479.494 349.58 479.998 349.58C480.87 349.58 481.542 349.792 482.014 350.216C482.486 350.64 482.722 351.288 482.722 352.16V356H481.63ZM479.542 356.072C479.07 356.072 478.654 355.992 478.294 355.832C477.942 355.672 477.67 355.452 477.478 355.172C477.286 354.884 477.19 354.56 477.19 354.2C477.19 353.856 477.27 353.544 477.43 353.264C477.598 352.984 477.866 352.76 478.234 352.592C478.61 352.424 479.114 352.34 479.746 352.34H481.762V353.168H479.794C479.218 353.168 478.83 353.264 478.63 353.456C478.43 353.648 478.33 353.88 478.33 354.152C478.33 354.464 478.454 354.716 478.702 354.908C478.95 355.092 479.294 355.184 479.734 355.184C480.166 355.184 480.542 355.088 480.862 354.896C481.19 354.704 481.426 354.424 481.57 354.056L481.798 354.848C481.646 355.224 481.378 355.524 480.994 355.748C480.61 355.964 480.126 356.072 479.542 356.072ZM492.81 349.58C493.322 349.58 493.774 349.68 494.166 349.88C494.558 350.08 494.862 350.384 495.078 350.792C495.302 351.2 495.414 351.716 495.414 352.34V356H494.262V352.472C494.262 351.856 494.118 351.392 493.83 351.08C493.542 350.768 493.138 350.612 492.618 350.612C492.234 350.612 491.898 350.692 491.61 350.852C491.322 351.012 491.098 351.248 490.938 351.56C490.786 351.872 490.71 352.26 490.71 352.724V356H489.558V352.472C489.558 351.856 489.414 351.392 489.126 351.08C488.846 350.768 488.442 350.612 487.914 350.612C487.538 350.612 487.206 350.692 486.918 350.852C486.63 351.012 486.406 351.248 486.246 351.56C486.086 351.872 486.006 352.26 486.006 352.724V356H484.854V349.64H485.958V351.332L485.778 350.9C485.978 350.484 486.286 350.16 486.702 349.928C487.118 349.696 487.602 349.58 488.154 349.58C488.762 349.58 489.286 349.732 489.726 350.036C490.166 350.332 490.454 350.784 490.59 351.392L490.122 351.2C490.314 350.712 490.65 350.32 491.13 350.024C491.61 349.728 492.17 349.58 492.81 349.58Z" fill="#909090"/>
<path d="M535.75 356.096C535.094 356.096 534.506 355.928 533.986 355.592C533.474 355.256 533.066 354.768 532.762 354.128C532.466 353.488 532.318 352.712 532.318 351.8C532.318 350.888 532.466 350.112 532.762 349.472C533.066 348.832 533.474 348.344 533.986 348.008C534.506 347.672 535.094 347.504 535.75 347.504C536.398 347.504 536.982 347.672 537.502 348.008C538.022 348.344 538.43 348.832 538.726 349.472C539.022 350.112 539.17 350.888 539.17 351.8C539.17 352.712 539.022 353.488 538.726 354.128C538.43 354.768 538.022 355.256 537.502 355.592C536.982 355.928 536.398 356.096 535.75 356.096ZM535.75 355.028C536.19 355.028 536.574 354.908 536.902 354.668C537.238 354.428 537.498 354.068 537.682 353.588C537.874 353.108 537.97 352.512 537.97 351.8C537.97 351.088 537.874 350.492 537.682 350.012C537.498 349.532 537.238 349.172 536.902 348.932C536.574 348.692 536.19 348.572 535.75 348.572C535.31 348.572 534.922 348.692 534.586 348.932C534.25 349.172 533.986 349.532 533.794 350.012C533.61 350.492 533.518 351.088 533.518 351.8C533.518 352.512 533.61 353.108 533.794 353.588C533.986 354.068 534.25 354.428 534.586 354.668C534.922 354.908 535.31 355.028 535.75 355.028ZM543.034 356.096C542.442 356.096 541.866 356.004 541.306 355.82C540.754 355.636 540.302 355.388 539.95 355.076L540.502 354.128C540.782 354.392 541.146 354.608 541.594 354.776C542.042 354.944 542.518 355.028 543.022 355.028C543.662 355.028 544.154 354.892 544.498 354.62C544.842 354.348 545.014 353.984 545.014 353.528C545.014 353.216 544.938 352.944 544.786 352.712C544.634 352.48 544.37 352.304 543.994 352.184C543.626 352.056 543.118 351.992 542.47 351.992H540.562L541.006 347.6H545.746V348.644H541.45L542.074 348.056L541.726 351.524L541.102 350.948H542.722C543.562 350.948 544.238 351.056 544.75 351.272C545.262 351.488 545.634 351.788 545.866 352.172C546.098 352.548 546.214 352.984 546.214 353.48C546.214 353.96 546.098 354.4 545.866 354.8C545.634 355.192 545.282 355.508 544.81 355.748C544.346 355.98 543.754 356.096 543.034 356.096ZM551.677 356V354.656L551.617 354.404V352.112C551.617 351.624 551.473 351.248 551.185 350.984C550.905 350.712 550.481 350.576 549.913 350.576C549.537 350.576 549.169 350.64 548.809 350.768C548.449 350.888 548.145 351.052 547.897 351.26L547.417 350.396C547.745 350.132 548.137 349.932 548.593 349.796C549.057 349.652 549.541 349.58 550.045 349.58C550.917 349.58 551.589 349.792 552.061 350.216C552.533 350.64 552.769 351.288 552.769 352.16V356H551.677ZM549.589 356.072C549.117 356.072 548.701 355.992 548.341 355.832C547.989 355.672 547.717 355.452 547.525 355.172C547.333 354.884 547.237 354.56 547.237 354.2C547.237 353.856 547.317 353.544 547.477 353.264C547.645 352.984 547.913 352.76 548.281 352.592C548.657 352.424 549.161 352.34 549.793 352.34H551.809V353.168H549.841C549.265 353.168 548.877 353.264 548.677 353.456C548.477 353.648 548.377 353.88 548.377 354.152C548.377 354.464 548.501 354.716 548.749 354.908C548.997 355.092 549.341 355.184 549.781 355.184C550.213 355.184 550.589 355.088 550.909 354.896C551.237 354.704 551.473 354.424 551.617 354.056L551.845 354.848C551.693 355.224 551.425 355.524 551.041 355.748C550.657 355.964 550.173 356.072 549.589 356.072ZM562.857 349.58C563.369 349.58 563.821 349.68 564.213 349.88C564.605 350.08 564.909 350.384 565.125 350.792C565.349 351.2 565.461 351.716 565.461 352.34V356H564.309V352.472C564.309 351.856 564.165 351.392 563.877 351.08C563.589 350.768 563.185 350.612 562.665 350.612C562.281 350.612 561.945 350.692 561.657 350.852C561.369 351.012 561.145 351.248 560.985 351.56C560.833 351.872 560.757 352.26 560.757 352.724V356H559.605V352.472C559.605 351.856 559.461 351.392 559.173 351.08C558.893 350.768 558.489 350.612 557.961 350.612C557.585 350.612 557.253 350.692 556.965 350.852C556.677 351.012 556.453 351.248 556.293 351.56C556.133 351.872 556.053 352.26 556.053 352.724V356H554.901V349.64H556.005V351.332L555.825 350.9C556.025 350.484 556.333 350.16 556.749 349.928C557.165 349.696 557.649 349.58 558.201 349.58C558.809 349.58 559.333 349.732 559.773 350.036C560.213 350.332 560.501 350.784 560.637 351.392L560.169 351.2C560.361 350.712 560.697 350.32 561.177 350.024C561.657 349.728 562.217 349.58 562.857 349.58Z" fill="#909090"/>
</g>
<path d="M54.8641 193.638L60.9398 201.182C67.0511 208.443 79.3802 223.953 91.4606 235.022C103.577 246.514 115.621 253.564 128.057 238.759C140.138 223.954 152.218 185.883 164.654 186.094C176.699 185.883 188.815 223.953 200.895 235.022C213.224 246.514 225.411 231.004 237.491 238.759C249.785 246.514 260.998 279.908 273.078 268.839C285.301 257.347 298.604 201.393 310.685 204.918C322.872 208.443 335.735 241.273 347.816 271.095C359.932 301.199 371.977 301.199 384.412 282.375C398.181 264.357 404.369 251.994 419.176 242.07C434.795 232.963 444.635 246.514 456.715 231.215C469.045 216.198 481.192 166.088 493.272 158.544C505.566 151.283 517.828 185.883 529.908 189.902C542.131 193.638 554.425 171.078 560.465 159.798L567 142L566.505 329H560.429C554.318 329 541.989 329 529.908 329C517.793 329 505.748 329 493.312 329C481.231 329 469.151 329 456.715 329C444.671 329 432.555 329 420.474 329C408.145 329 395.958 329 383.878 329C371.584 329 359.361 329 347.281 329C335.059 329 322.765 329 310.685 329C298.498 329 286.168 329 274.088 329C261.972 329 249.927 329 237.491 329C225.411 329 213.331 329 200.895 329C188.85 329 176.734 329 164.654 329C152.325 329 140.138 329 128.057 329C115.764 329 103.541 329 91.4606 329C79.2381 329 66.9445 329 60.9043 329H54.8641V193.638Z" fill="url(#paint0_linear_1_272)"/>
<g filter="url(#filter0_d_1_272)">
<path d="M55.2019 191.789L61.2736 199.946C67.3809 207.798 79.7019 224.569 91.7743 236.537C103.882 248.963 115.919 256.587 128.347 240.578C140.419 224.569 152.492 183.403 164.919 183.632C176.956 183.403 189.064 224.569 201.137 236.537C213.458 248.963 225.637 232.192 237.709 240.578C249.994 248.963 262.209 280.981 274.281 269.013C286.496 256.587 298.781 200.174 310.854 203.986C323.033 207.798 335.354 237.549 347.426 269.796C359.534 302.347 371.571 302.347 383.999 281.993C397.759 262.51 404.477 254.889 419.274 244.159C434.883 234.311 444.716 248.963 456.789 232.421C469.11 216.183 481.288 167.394 493.361 159.238C505.646 151.386 517.861 183.403 529.933 187.749C542.148 191.789 554.433 167.394 560.47 155.197L566.506 143" stroke="url(#paint1_linear_1_272)" stroke-width="4" stroke-linecap="round"/>
</g>
<g filter="url(#filter1_d_1_272)">
<ellipse cx="163.99" cy="185" rx="6.92288" ry="7" fill="white"/>
<path d="M169.412 185C169.412 188.053 166.969 190.5 163.99 190.5C161.01 190.5 158.567 188.053 158.567 185C158.567 181.947 161.01 179.5 163.99 179.5C166.969 179.5 169.412 181.947 169.412 185Z" stroke="#00B8FF" stroke-width="3"/>
</g>
<g filter="url(#filter2_d_1_272)">
<ellipse cx="245.086" cy="248" rx="6.92288" ry="7" fill="white"/>
<path d="M250.509 248C250.509 251.053 248.066 253.5 245.086 253.5C242.107 253.5 239.663 251.053 239.663 248C239.663 244.947 242.107 242.5 245.086 242.5C248.066 242.5 250.509 244.947 250.509 248Z" stroke="#00B8FF" stroke-width="3"/>
</g>
<g filter="url(#filter3_d_1_272)">
<ellipse cx="310.359" cy="202" rx="6.92288" ry="7" fill="white"/>
<path d="M315.782 202C315.782 205.053 313.339 207.5 310.359 207.5C307.38 207.5 304.936 205.053 304.936 202C304.936 198.947 307.38 196.5 310.359 196.5C313.339 196.5 315.782 198.947 315.782 202Z" stroke="#00B8FF" stroke-width="3"/>
</g>
<g filter="url(#filter4_d_1_272)">
<ellipse cx="458.707" cy="229" rx="6.92288" ry="7" fill="white"/>
<path d="M464.129 229C464.129 232.053 461.686 234.5 458.707 234.5C455.727 234.5 453.284 232.053 453.284 229C453.284 225.947 455.727 223.5 458.707 223.5C461.686 223.5 464.129 225.947 464.129 229Z" stroke="#00B8FF" stroke-width="3"/>
</g>
<g filter="url(#filter5_d_1_272)">
<ellipse cx="558.594" cy="159" rx="6.92288" ry="7" fill="white"/>
<path d="M564.017 159C564.017 162.053 561.573 164.5 558.594 164.5C555.614 164.5 553.171 162.053 553.171 159C553.171 155.947 555.614 153.5 558.594 153.5C561.573 153.5 564.017 155.947 564.017 159Z" stroke="#00B8FF" stroke-width="3"/>
</g>
<g filter="url(#filter6_d_1_272)">
<path fill-rule="evenodd" clip-rule="evenodd" d="M284.756 128C279.233 128 274.756 132.477 274.756 138V174C274.756 179.523 279.233 184 284.756 184H305.774L309.019 191.033C309.377 191.807 310.478 191.807 310.835 191.033L314.081 184H335.899C341.421 184 345.899 179.523 345.899 174V138C345.899 132.477 341.421 128 335.899 128H284.756Z" fill="#F7F7F7"/>
</g>
<path opacity="0.8" d="M298.353 149.072C297.281 149.072 296.437 148.764 295.821 148.148C295.205 147.532 294.897 146.62 294.897 145.412V140.6H295.785V145.376C295.785 146.368 296.009 147.1 296.457 147.572C296.905 148.044 297.537 148.28 298.353 148.28C299.177 148.28 299.813 148.044 300.261 147.572C300.709 147.1 300.933 146.368 300.933 145.376V140.6H301.797V145.412C301.797 146.62 301.489 147.532 300.873 148.148C300.265 148.764 299.425 149.072 298.353 149.072ZM305.985 149.06C305.465 149.06 304.973 148.988 304.509 148.844C304.045 148.692 303.681 148.504 303.417 148.28L303.801 147.608C304.057 147.8 304.385 147.968 304.785 148.112C305.185 148.248 305.605 148.316 306.045 148.316C306.645 148.316 307.077 148.224 307.341 148.04C307.605 147.848 307.737 147.596 307.737 147.284C307.737 147.052 307.661 146.872 307.509 146.744C307.365 146.608 307.173 146.508 306.933 146.444C306.693 146.372 306.425 146.312 306.129 146.264C305.833 146.216 305.537 146.16 305.241 146.096C304.953 146.032 304.689 145.94 304.449 145.82C304.209 145.692 304.013 145.52 303.861 145.304C303.717 145.088 303.645 144.8 303.645 144.44C303.645 144.096 303.741 143.788 303.933 143.516C304.125 143.244 304.405 143.032 304.773 142.88C305.149 142.72 305.605 142.64 306.141 142.64C306.549 142.64 306.957 142.696 307.365 142.808C307.773 142.912 308.109 143.052 308.373 143.228L308.001 143.912C307.721 143.72 307.421 143.584 307.101 143.504C306.781 143.416 306.461 143.372 306.141 143.372C305.573 143.372 305.153 143.472 304.881 143.672C304.617 143.864 304.485 144.112 304.485 144.416C304.485 144.656 304.557 144.844 304.701 144.98C304.853 145.116 305.049 145.224 305.289 145.304C305.537 145.376 305.805 145.436 306.093 145.484C306.389 145.532 306.681 145.592 306.969 145.664C307.265 145.728 307.533 145.82 307.773 145.94C308.021 146.052 308.217 146.216 308.361 146.432C308.513 146.64 308.589 146.916 308.589 147.26C308.589 147.628 308.485 147.948 308.277 148.22C308.077 148.484 307.781 148.692 307.389 148.844C307.005 148.988 306.537 149.06 305.985 149.06ZM312.828 149.06C312.172 149.06 311.596 148.924 311.1 148.652C310.604 148.372 310.216 147.992 309.936 147.512C309.656 147.024 309.516 146.468 309.516 145.844C309.516 145.22 309.648 144.668 309.912 144.188C310.184 143.708 310.552 143.332 311.016 143.06C311.488 142.78 312.016 142.64 312.6 142.64C313.192 142.64 313.716 142.776 314.172 143.048C314.636 143.312 315 143.688 315.264 144.176C315.528 144.656 315.66 145.212 315.66 145.844C315.66 145.884 315.656 145.928 315.648 145.976C315.648 146.016 315.648 146.06 315.648 146.108H310.164V145.472H315.192L314.856 145.724C314.856 145.268 314.756 144.864 314.556 144.512C314.364 144.152 314.1 143.872 313.764 143.672C313.428 143.472 313.04 143.372 312.6 143.372C312.168 143.372 311.78 143.472 311.436 143.672C311.092 143.872 310.824 144.152 310.632 144.512C310.44 144.872 310.344 145.284 310.344 145.748V145.88C310.344 146.36 310.448 146.784 310.656 147.152C310.872 147.512 311.168 147.796 311.544 148.004C311.928 148.204 312.364 148.304 312.852 148.304C313.236 148.304 313.592 148.236 313.92 148.1C314.256 147.964 314.544 147.756 314.784 147.476L315.264 148.028C314.984 148.364 314.632 148.62 314.208 148.796C313.792 148.972 313.332 149.06 312.828 149.06ZM317.395 149V142.7H318.211V144.416L318.127 144.116C318.303 143.636 318.599 143.272 319.015 143.024C319.431 142.768 319.947 142.64 320.563 142.64V143.468C320.531 143.468 320.499 143.468 320.467 143.468C320.435 143.46 320.403 143.456 320.371 143.456C319.707 143.456 319.187 143.66 318.811 144.068C318.435 144.468 318.247 145.04 318.247 145.784V149H317.395ZM323.88 149.06C323.36 149.06 322.868 148.988 322.404 148.844C321.94 148.692 321.576 148.504 321.312 148.28L321.696 147.608C321.952 147.8 322.28 147.968 322.68 148.112C323.08 148.248 323.5 148.316 323.94 148.316C324.54 148.316 324.972 148.224 325.236 148.04C325.5 147.848 325.632 147.596 325.632 147.284C325.632 147.052 325.556 146.872 325.404 146.744C325.26 146.608 325.068 146.508 324.828 146.444C324.588 146.372 324.32 146.312 324.024 146.264C323.728 146.216 323.432 146.16 323.136 146.096C322.848 146.032 322.584 145.94 322.344 145.82C322.104 145.692 321.908 145.52 321.756 145.304C321.612 145.088 321.54 144.8 321.54 144.44C321.54 144.096 321.636 143.788 321.828 143.516C322.02 143.244 322.3 143.032 322.668 142.88C323.044 142.72 323.5 142.64 324.036 142.64C324.444 142.64 324.852 142.696 325.26 142.808C325.668 142.912 326.004 143.052 326.268 143.228L325.896 143.912C325.616 143.72 325.316 143.584 324.996 143.504C324.676 143.416 324.356 143.372 324.036 143.372C323.468 143.372 323.048 143.472 322.776 143.672C322.512 143.864 322.38 144.112 322.38 144.416C322.38 144.656 322.452 144.844 322.596 144.98C322.748 145.116 322.944 145.224 323.184 145.304C323.432 145.376 323.7 145.436 323.988 145.484C324.284 145.532 324.576 145.592 324.864 145.664C325.16 145.728 325.428 145.82 325.668 145.94C325.916 146.052 326.112 146.216 326.256 146.432C326.408 146.64 326.484 146.916 326.484 147.26C326.484 147.628 326.38 147.948 326.172 148.22C325.972 148.484 325.676 148.692 325.284 148.844C324.9 148.988 324.432 149.06 323.88 149.06Z" fill="#262626"/>
<path d="M289.161 168V166.608L293.609 162.384C293.982 162.032 294.26 161.723 294.441 161.456C294.622 161.189 294.74 160.944 294.793 160.72C294.857 160.485 294.889 160.267 294.889 160.064C294.889 159.552 294.713 159.157 294.361 158.88C294.009 158.592 293.492 158.448 292.809 158.448C292.265 158.448 291.769 158.544 291.321 158.736C290.884 158.928 290.505 159.221 290.185 159.616L288.729 158.496C289.166 157.909 289.753 157.456 290.489 157.136C291.236 156.805 292.068 156.64 292.985 156.64C293.796 156.64 294.5 156.773 295.097 157.04C295.705 157.296 296.169 157.664 296.489 158.144C296.82 158.624 296.985 159.195 296.985 159.856C296.985 160.219 296.937 160.581 296.841 160.944C296.745 161.296 296.564 161.669 296.297 162.064C296.03 162.459 295.641 162.901 295.129 163.392L291.305 167.024L290.873 166.24H297.417V168H289.161ZM298.854 170.416L299.782 166.88L300.054 168.064C299.681 168.064 299.366 167.952 299.11 167.728C298.865 167.493 298.742 167.179 298.742 166.784C298.742 166.379 298.865 166.059 299.11 165.824C299.366 165.579 299.675 165.456 300.038 165.456C300.411 165.456 300.721 165.579 300.966 165.824C301.211 166.069 301.334 166.389 301.334 166.784C301.334 166.891 301.323 167.008 301.302 167.136C301.281 167.253 301.243 167.392 301.19 167.552C301.147 167.712 301.073 167.915 300.966 168.16L300.15 170.416H298.854ZM307.341 168.16C306.327 168.16 305.458 167.947 304.733 167.52C304.007 167.083 303.453 166.453 303.069 165.632C302.685 164.811 302.493 163.797 302.493 162.592C302.493 161.312 302.722 160.229 303.181 159.344C303.65 158.459 304.295 157.787 305.117 157.328C305.949 156.869 306.903 156.64 307.981 156.64C308.546 156.64 309.085 156.699 309.597 156.816C310.119 156.933 310.562 157.115 310.925 157.36L310.157 158.928C309.847 158.725 309.511 158.587 309.149 158.512C308.797 158.427 308.423 158.384 308.029 158.384C306.973 158.384 306.135 158.709 305.517 159.36C304.898 160.011 304.589 160.971 304.589 162.24C304.589 162.443 304.594 162.683 304.605 162.96C304.615 163.227 304.653 163.499 304.717 163.776L304.077 163.072C304.269 162.635 304.53 162.272 304.861 161.984C305.202 161.685 305.602 161.461 306.061 161.312C306.53 161.163 307.037 161.088 307.581 161.088C308.317 161.088 308.973 161.232 309.549 161.52C310.125 161.797 310.583 162.197 310.925 162.72C311.266 163.232 311.437 163.835 311.437 164.528C311.437 165.264 311.255 165.904 310.893 166.448C310.53 166.992 310.039 167.413 309.421 167.712C308.802 168.011 308.109 168.16 307.341 168.16ZM307.229 166.528C307.655 166.528 308.034 166.453 308.365 166.304C308.695 166.144 308.951 165.92 309.133 165.632C309.325 165.344 309.421 165.008 309.421 164.624C309.421 164.037 309.218 163.573 308.813 163.232C308.407 162.891 307.863 162.72 307.181 162.72C306.733 162.72 306.338 162.805 305.997 162.976C305.666 163.136 305.399 163.36 305.197 163.648C305.005 163.936 304.909 164.267 304.909 164.64C304.909 164.981 304.999 165.296 305.181 165.584C305.362 165.872 305.623 166.101 305.965 166.272C306.317 166.443 306.738 166.528 307.229 166.528ZM314.318 168L318.942 157.632L319.486 158.56H313.134L314.126 157.552V160.464H312.19V156.8H320.894V158.192L316.542 168H314.318ZM326.395 168.16C325.467 168.16 324.662 168.021 323.979 167.744C323.296 167.467 322.768 167.077 322.395 166.576C322.022 166.064 321.835 165.467 321.835 164.784C321.835 164.101 322.016 163.525 322.379 163.056C322.742 162.587 323.264 162.229 323.947 161.984C324.63 161.739 325.446 161.616 326.395 161.616C327.344 161.616 328.16 161.739 328.843 161.984C329.536 162.229 330.064 162.592 330.427 163.072C330.8 163.541 330.987 164.112 330.987 164.784C330.987 165.467 330.795 166.064 330.411 166.576C330.038 167.077 329.504 167.467 328.811 167.744C328.128 168.021 327.323 168.16 326.395 168.16ZM326.395 166.528C327.163 166.528 327.771 166.368 328.219 166.048C328.667 165.728 328.891 165.285 328.891 164.72C328.891 164.165 328.667 163.728 328.219 163.408C327.771 163.088 327.163 162.928 326.395 162.928C325.627 162.928 325.024 163.088 324.587 163.408C324.15 163.728 323.931 164.165 323.931 164.72C323.931 165.285 324.15 165.728 324.587 166.048C325.024 166.368 325.627 166.528 326.395 166.528ZM326.395 162.704C325.531 162.704 324.79 162.592 324.171 162.368C323.552 162.133 323.072 161.797 322.731 161.36C322.4 160.912 322.235 160.379 322.235 159.76C322.235 159.12 322.406 158.571 322.747 158.112C323.099 157.643 323.59 157.28 324.219 157.024C324.848 156.768 325.574 156.64 326.395 156.64C327.227 156.64 327.958 156.768 328.587 157.024C329.216 157.28 329.707 157.643 330.059 158.112C330.411 158.571 330.587 159.12 330.587 159.76C330.587 160.379 330.416 160.912 330.075 161.36C329.744 161.797 329.264 162.133 328.635 162.368C328.006 162.592 327.259 162.704 326.395 162.704ZM326.395 161.424C327.056 161.424 327.579 161.285 327.963 161.008C328.347 160.72 328.539 160.336 328.539 159.856C328.539 159.355 328.342 158.965 327.947 158.688C327.552 158.411 327.035 158.272 326.395 158.272C325.755 158.272 325.243 158.411 324.859 158.688C324.475 158.965 324.283 159.355 324.283 159.856C324.283 160.336 324.47 160.72 324.843 161.008C325.227 161.285 325.744 161.424 326.395 161.424Z" fill="#262626"/>
<line x1="310.212" y1="328" x2="310.212" y2="211" stroke="#605BFF" stroke-dasharray="2 7"/>
<path d="M26.22 37.2C25.1267 37.2 24.08 37.0467 23.08 36.74C22.08 36.42 21.2867 36.0133 20.7 35.52L21.6 33.5C22.16 33.94 22.8533 34.3067 23.68 34.6C24.5067 34.8933 25.3533 35.04 26.22 35.04C26.9533 35.04 27.5467 34.96 28 34.8C28.4533 34.64 28.7867 34.4267 29 34.16C29.2133 33.88 29.32 33.5667 29.32 33.22C29.32 32.7933 29.1667 32.4533 28.86 32.2C28.5533 31.9333 28.1533 31.7267 27.66 31.58C27.18 31.42 26.64 31.2733 26.04 31.14C25.4533 31.0067 24.86 30.8533 24.26 30.68C23.6733 30.4933 23.1333 30.26 22.64 29.98C22.16 29.6867 21.7667 29.3 21.46 28.82C21.1533 28.34 21 27.7267 21 26.98C21 26.22 21.2 25.5267 21.6 24.9C22.0133 24.26 22.6333 23.7533 23.46 23.38C24.3 22.9933 25.36 22.8 26.64 22.8C27.48 22.8 28.3133 22.9067 29.14 23.12C29.9667 23.3333 30.6867 23.64 31.3 24.04L30.48 26.06C29.8533 25.6867 29.2067 25.4133 28.54 25.24C27.8733 25.0533 27.2333 24.96 26.62 24.96C25.9 24.96 25.3133 25.0467 24.86 25.22C24.42 25.3933 24.0933 25.62 23.88 25.9C23.68 26.18 23.58 26.5 23.58 26.86C23.58 27.2867 23.7267 27.6333 24.02 27.9C24.3267 28.1533 24.72 28.3533 25.2 28.5C25.6933 28.6467 26.24 28.7933 26.84 28.94C27.44 29.0733 28.0333 29.2267 28.62 29.4C29.22 29.5733 29.76 29.8 30.24 30.08C30.7333 30.36 31.1267 30.74 31.42 31.22C31.7267 31.7 31.88 32.3067 31.88 33.04C31.88 33.7867 31.6733 34.48 31.26 35.12C30.86 35.7467 30.24 36.2533 29.4 36.64C28.56 37.0133 27.5 37.2 26.22 37.2ZM38.3381 37.14C37.1648 37.14 36.2581 36.84 35.6181 36.24C34.9781 35.6267 34.6581 34.7267 34.6581 33.54V23.96H37.1581V33.48C37.1581 33.9867 37.2848 34.38 37.5381 34.66C37.8048 34.94 38.1715 35.08 38.6381 35.08C39.1981 35.08 39.6648 34.9333 40.0381 34.64L40.7381 36.42C40.4448 36.66 40.0848 36.84 39.6581 36.96C39.2315 37.08 38.7915 37.14 38.3381 37.14ZM32.8981 28.4V26.4H40.0181V28.4H32.8981ZM49.4747 37V34.84L49.3347 34.38V30.6C49.3347 29.8667 49.1147 29.3 48.6747 28.9C48.2347 28.4867 47.568 28.28 46.6747 28.28C46.0747 28.28 45.4814 28.3733 44.8947 28.56C44.3214 28.7467 43.8347 29.0067 43.4347 29.34L42.4547 27.52C43.028 27.08 43.708 26.7533 44.4947 26.54C45.2947 26.3133 46.1214 26.2 46.9747 26.2C48.5214 26.2 49.7147 26.5733 50.5547 27.32C51.408 28.0533 51.8347 29.1933 51.8347 30.74V37H49.4747ZM46.1147 37.14C45.3147 37.14 44.6147 37.0067 44.0147 36.74C43.4147 36.46 42.948 36.08 42.6147 35.6C42.2947 35.1067 42.1347 34.5533 42.1347 33.94C42.1347 33.34 42.2747 32.8 42.5547 32.32C42.848 31.84 43.3214 31.46 43.9747 31.18C44.628 30.9 45.4947 30.76 46.5747 30.76H49.6747V32.42H46.7547C45.9014 32.42 45.328 32.56 45.0347 32.84C44.7414 33.1067 44.5947 33.44 44.5947 33.84C44.5947 34.2933 44.7747 34.6533 45.1347 34.92C45.4947 35.1867 45.9947 35.32 46.6347 35.32C47.248 35.32 47.7947 35.18 48.2747 34.9C48.768 34.62 49.1214 34.2067 49.3347 33.66L49.7547 35.16C49.5147 35.7867 49.0814 36.2733 48.4547 36.62C47.8414 36.9667 47.0614 37.14 46.1147 37.14ZM59.1631 37.14C57.9898 37.14 57.0831 36.84 56.4431 36.24C55.8031 35.6267 55.4831 34.7267 55.4831 33.54V23.96H57.9831V33.48C57.9831 33.9867 58.1098 34.38 58.3631 34.66C58.6298 34.94 58.9965 35.08 59.4631 35.08C60.0231 35.08 60.4898 34.9333 60.8631 34.64L61.5631 36.42C61.2698 36.66 60.9098 36.84 60.4831 36.96C60.0565 37.08 59.6165 37.14 59.1631 37.14ZM53.7231 28.4V26.4H60.8431V28.4H53.7231ZM63.7197 37V26.32H66.2197V37H63.7197ZM64.9797 24.56C64.513 24.56 64.1264 24.4133 63.8197 24.12C63.5264 23.8267 63.3797 23.4733 63.3797 23.06C63.3797 22.6333 63.5264 22.28 63.8197 22C64.1264 21.7067 64.513 21.56 64.9797 21.56C65.4464 21.56 65.8264 21.7 66.1197 21.98C66.4264 22.2467 66.5797 22.5867 66.5797 23C66.5797 23.44 66.433 23.8133 66.1397 24.12C65.8464 24.4133 65.4597 24.56 64.9797 24.56ZM72.9009 37.14C72.0076 37.14 71.1476 37.0267 70.3209 36.8C69.5076 36.56 68.8609 36.2733 68.3809 35.94L69.3409 34.04C69.8209 34.3467 70.3943 34.6 71.0609 34.8C71.7276 35 72.3943 35.1 73.0609 35.1C73.8476 35.1 74.4143 34.9933 74.7609 34.78C75.1209 34.5667 75.3009 34.28 75.3009 33.92C75.3009 33.6267 75.1809 33.4067 74.9409 33.26C74.7009 33.1 74.3876 32.98 74.0009 32.9C73.6143 32.82 73.1809 32.7467 72.7009 32.68C72.2343 32.6133 71.7609 32.5267 71.2809 32.42C70.8143 32.3 70.3876 32.1333 70.0009 31.92C69.6143 31.6933 69.3009 31.3933 69.0609 31.02C68.8209 30.6467 68.7009 30.1533 68.7009 29.54C68.7009 28.86 68.8943 28.2733 69.2809 27.78C69.6676 27.2733 70.2076 26.8867 70.9009 26.62C71.6076 26.34 72.4409 26.2 73.4009 26.2C74.1209 26.2 74.8476 26.28 75.5809 26.44C76.3143 26.6 76.9209 26.8267 77.4009 27.12L76.4409 29.02C75.9343 28.7133 75.4209 28.5067 74.9009 28.4C74.3943 28.28 73.8876 28.22 73.3809 28.22C72.6209 28.22 72.0543 28.3333 71.6809 28.56C71.3209 28.7867 71.1409 29.0733 71.1409 29.42C71.1409 29.74 71.2609 29.98 71.5009 30.14C71.7409 30.3 72.0543 30.4267 72.4409 30.52C72.8276 30.6133 73.2543 30.6933 73.7209 30.76C74.2009 30.8133 74.6743 30.9 75.1409 31.02C75.6076 31.14 76.0343 31.3067 76.4209 31.52C76.8209 31.72 77.1409 32.0067 77.3809 32.38C77.6209 32.7533 77.7409 33.24 77.7409 33.84C77.7409 34.5067 77.5409 35.0867 77.1409 35.58C76.7543 36.0733 76.2009 36.46 75.4809 36.74C74.7609 37.0067 73.9009 37.14 72.9009 37.14ZM84.0139 37.14C82.8406 37.14 81.9339 36.84 81.2939 36.24C80.6539 35.6267 80.3339 34.7267 80.3339 33.54V23.96H82.8339V33.48C82.8339 33.9867 82.9606 34.38 83.2139 34.66C83.4806 34.94 83.8472 35.08 84.3139 35.08C84.8739 35.08 85.3406 34.9333 85.7139 34.64L86.4139 36.42C86.1206 36.66 85.7606 36.84 85.3339 36.96C84.9072 37.08 84.4672 37.14 84.0139 37.14ZM78.5739 28.4V26.4H85.6939V28.4H78.5739ZM88.5705 37V26.32H91.0705V37H88.5705ZM89.8305 24.56C89.3638 24.56 88.9771 24.4133 88.6705 24.12C88.3771 23.8267 88.2305 23.4733 88.2305 23.06C88.2305 22.6333 88.3771 22.28 88.6705 22C88.9771 21.7067 89.3638 21.56 89.8305 21.56C90.2971 21.56 90.6771 21.7 90.9705 21.98C91.2771 22.2467 91.4305 22.5867 91.4305 23C91.4305 23.44 91.2838 23.8133 90.9905 24.12C90.6971 24.4133 90.3105 24.56 89.8305 24.56ZM99.3517 37.14C98.2317 37.14 97.2317 36.9067 96.3517 36.44C95.4851 35.96 94.8051 35.3067 94.3117 34.48C93.8184 33.6533 93.5717 32.7133 93.5717 31.66C93.5717 30.5933 93.8184 29.6533 94.3117 28.84C94.8051 28.0133 95.4851 27.3667 96.3517 26.9C97.2317 26.4333 98.2317 26.2 99.3517 26.2C100.392 26.2 101.305 26.4133 102.092 26.84C102.892 27.2533 103.498 27.8667 103.912 28.68L101.992 29.8C101.672 29.2933 101.278 28.92 100.812 28.68C100.358 28.44 99.8651 28.32 99.3317 28.32C98.7184 28.32 98.1651 28.4533 97.6717 28.72C97.1784 28.9867 96.7917 29.3733 96.5117 29.88C96.2317 30.3733 96.0917 30.9667 96.0917 31.66C96.0917 32.3533 96.2317 32.9533 96.5117 33.46C96.7917 33.9533 97.1784 34.3333 97.6717 34.6C98.1651 34.8667 98.7184 35 99.3317 35C99.8651 35 100.358 34.88 100.812 34.64C101.278 34.4 101.672 34.0267 101.992 33.52L103.912 34.64C103.498 35.44 102.892 36.06 102.092 36.5C101.305 36.9267 100.392 37.14 99.3517 37.14ZM109.473 37.14C108.579 37.14 107.719 37.0267 106.893 36.8C106.079 36.56 105.433 36.2733 104.953 35.94L105.913 34.04C106.393 34.3467 106.966 34.6 107.633 34.8C108.299 35 108.966 35.1 109.633 35.1C110.419 35.1 110.986 34.9933 111.333 34.78C111.693 34.5667 111.873 34.28 111.873 33.92C111.873 33.6267 111.753 33.4067 111.513 33.26C111.273 33.1 110.959 32.98 110.573 32.9C110.186 32.82 109.753 32.7467 109.273 32.68C108.806 32.6133 108.333 32.5267 107.853 32.42C107.386 32.3 106.959 32.1333 106.573 31.92C106.186 31.6933 105.873 31.3933 105.633 31.02C105.393 30.6467 105.273 30.1533 105.273 29.54C105.273 28.86 105.466 28.2733 105.853 27.78C106.239 27.2733 106.779 26.8867 107.473 26.62C108.179 26.34 109.013 26.2 109.973 26.2C110.693 26.2 111.419 26.28 112.153 26.44C112.886 26.6 113.493 26.8267 113.973 27.12L113.013 29.02C112.506 28.7133 111.993 28.5067 111.473 28.4C110.966 28.28 110.459 28.22 109.953 28.22C109.193 28.22 108.626 28.3333 108.253 28.56C107.893 28.7867 107.713 29.0733 107.713 29.42C107.713 29.74 107.833 29.98 108.073 30.14C108.313 30.3 108.626 30.4267 109.013 30.52C109.399 30.6133 109.826 30.6933 110.293 30.76C110.773 30.8133 111.246 30.9 111.713 31.02C112.179 31.14 112.606 31.3067 112.993 31.52C113.393 31.72 113.713 32.0067 113.953 32.38C114.193 32.7533 114.313 33.24 114.313 33.84C114.313 34.5067 114.113 35.0867 113.713 35.58C113.326 36.0733 112.773 36.46 112.053 36.74C111.333 37.0067 110.473 37.14 109.473 37.14Z" fill="#262626"/>
<rect x="368" y="12" width="199" height="36" rx="5" fill="#F7F7F7"/>
<circle cx="384" cy="30" r="7" fill="#106DF9"/>
<path d="M397.47 35V25.2H398.87V35H397.47ZM405.67 27.51C406.277 27.51 406.809 27.6267 407.266 27.86C407.733 28.0933 408.097 28.448 408.358 28.924C408.619 29.4 408.75 30.002 408.75 30.73V35H407.406V30.884C407.406 30.1653 407.229 29.624 406.874 29.26C406.529 28.896 406.039 28.714 405.404 28.714C404.928 28.714 404.513 28.8073 404.158 28.994C403.803 29.1807 403.528 29.456 403.332 29.82C403.145 30.184 403.052 30.6367 403.052 31.178V35H401.708V27.58H402.996V29.582L402.786 29.05C403.029 28.5647 403.402 28.1867 403.906 27.916C404.41 27.6453 404.998 27.51 405.67 27.51ZM414.571 35.084C413.815 35.084 413.139 34.9207 412.541 34.594C411.953 34.2673 411.491 33.8193 411.155 33.25C410.819 32.6807 410.651 32.0273 410.651 31.29C410.651 30.5527 410.819 29.8993 411.155 29.33C411.491 28.7607 411.953 28.3173 412.541 28C413.139 27.6733 413.815 27.51 414.571 27.51C415.243 27.51 415.841 27.6453 416.363 27.916C416.895 28.1773 417.306 28.5693 417.595 29.092L416.573 29.75C416.331 29.386 416.032 29.12 415.677 28.952C415.332 28.7747 414.959 28.686 414.557 28.686C414.072 28.686 413.638 28.7933 413.255 29.008C412.873 29.2227 412.569 29.526 412.345 29.918C412.121 30.3007 412.009 30.758 412.009 31.29C412.009 31.822 412.121 32.284 412.345 32.676C412.569 33.068 412.873 33.3713 413.255 33.586C413.638 33.8007 414.072 33.908 414.557 33.908C414.959 33.908 415.332 33.824 415.677 33.656C416.032 33.4787 416.331 33.208 416.573 32.844L417.595 33.488C417.306 34.0013 416.895 34.398 416.363 34.678C415.841 34.9487 415.243 35.084 414.571 35.084ZM422.504 35.084C421.757 35.084 421.095 34.9207 420.516 34.594C419.937 34.2673 419.48 33.8193 419.144 33.25C418.808 32.6713 418.64 32.018 418.64 31.29C418.64 30.5527 418.808 29.8993 419.144 29.33C419.48 28.7607 419.937 28.3173 420.516 28C421.095 27.6733 421.757 27.51 422.504 27.51C423.241 27.51 423.899 27.6733 424.478 28C425.066 28.3173 425.523 28.7607 425.85 29.33C426.186 29.89 426.354 30.5433 426.354 31.29C426.354 32.0273 426.186 32.6807 425.85 33.25C425.523 33.8193 425.066 34.2673 424.478 34.594C423.899 34.9207 423.241 35.084 422.504 35.084ZM422.504 33.908C422.98 33.908 423.405 33.8007 423.778 33.586C424.161 33.3713 424.459 33.068 424.674 32.676C424.889 32.2747 424.996 31.8127 424.996 31.29C424.996 30.758 424.889 30.3007 424.674 29.918C424.459 29.526 424.161 29.2227 423.778 29.008C423.405 28.7933 422.98 28.686 422.504 28.686C422.028 28.686 421.603 28.7933 421.23 29.008C420.857 29.2227 420.558 29.526 420.334 29.918C420.11 30.3007 419.998 30.758 419.998 31.29C419.998 31.8127 420.11 32.2747 420.334 32.676C420.558 33.068 420.857 33.3713 421.23 33.586C421.603 33.8007 422.028 33.908 422.504 33.908ZM437.595 27.51C438.192 27.51 438.719 27.6267 439.177 27.86C439.634 28.0933 439.989 28.448 440.241 28.924C440.502 29.4 440.633 30.002 440.633 30.73V35H439.289V30.884C439.289 30.1653 439.121 29.624 438.785 29.26C438.449 28.896 437.977 28.714 437.371 28.714C436.923 28.714 436.531 28.8073 436.195 28.994C435.859 29.1807 435.597 29.456 435.411 29.82C435.233 30.184 435.145 30.6367 435.145 31.178V35H433.801V30.884C433.801 30.1653 433.633 29.624 433.297 29.26C432.97 28.896 432.499 28.714 431.883 28.714C431.444 28.714 431.057 28.8073 430.721 28.994C430.385 29.1807 430.123 29.456 429.937 29.82C429.75 30.184 429.657 30.6367 429.657 31.178V35H428.313V27.58H429.601V29.554L429.391 29.05C429.624 28.5647 429.983 28.1867 430.469 27.916C430.954 27.6453 431.519 27.51 432.163 27.51C432.872 27.51 433.483 27.6873 433.997 28.042C434.51 28.3873 434.846 28.9147 435.005 29.624L434.459 29.4C434.683 28.8307 435.075 28.3733 435.635 28.028C436.195 27.6827 436.848 27.51 437.595 27.51ZM446.51 35.084C445.716 35.084 445.016 34.9207 444.41 34.594C443.812 34.2673 443.346 33.8193 443.01 33.25C442.683 32.6807 442.52 32.0273 442.52 31.29C442.52 30.5527 442.678 29.8993 442.996 29.33C443.322 28.7607 443.766 28.3173 444.326 28C444.895 27.6733 445.534 27.51 446.244 27.51C446.962 27.51 447.597 27.6687 448.148 27.986C448.698 28.3033 449.128 28.7513 449.436 29.33C449.753 29.8993 449.912 30.5667 449.912 31.332C449.912 31.388 449.907 31.4533 449.898 31.528C449.898 31.6027 449.893 31.6727 449.884 31.738H443.57V30.772H449.184L448.638 31.108C448.647 30.632 448.549 30.2073 448.344 29.834C448.138 29.4607 447.854 29.1713 447.49 28.966C447.135 28.7513 446.72 28.644 446.244 28.644C445.777 28.644 445.362 28.7513 444.998 28.966C444.634 29.1713 444.349 29.4653 444.144 29.848C443.938 30.2213 443.836 30.6507 443.836 31.136V31.36C443.836 31.8547 443.948 32.298 444.172 32.69C444.405 33.0727 444.727 33.3713 445.138 33.586C445.548 33.8007 446.02 33.908 446.552 33.908C446.99 33.908 447.387 33.8333 447.742 33.684C448.106 33.5347 448.423 33.3107 448.694 33.012L449.436 33.88C449.1 34.272 448.68 34.5707 448.176 34.776C447.681 34.9813 447.126 35.084 446.51 35.084Z" fill="#262626"/>
<line x1="461.5" y1="21" x2="461.5" y2="39" stroke="#D4D4D4"/>
<circle cx="478" cy="30" r="7" fill="#01C3FF"/>
<path d="M495.894 35.112C495.147 35.112 494.452 34.986 493.808 34.734C493.173 34.482 492.623 34.132 492.156 33.684C491.689 33.2267 491.325 32.6947 491.064 32.088C490.803 31.4813 490.672 30.8187 490.672 30.1C490.672 29.3813 490.803 28.7187 491.064 28.112C491.325 27.5053 491.689 26.978 492.156 26.53C492.623 26.0727 493.173 25.718 493.808 25.466C494.443 25.214 495.138 25.088 495.894 25.088C496.641 25.088 497.327 25.214 497.952 25.466C498.587 25.7087 499.137 26.0587 499.604 26.516C500.08 26.964 500.444 27.4913 500.696 28.098C500.957 28.7047 501.088 29.372 501.088 30.1C501.088 30.828 500.957 31.4953 500.696 32.102C500.444 32.7087 500.08 33.2407 499.604 33.698C499.137 34.146 498.587 34.496 497.952 34.748C497.327 34.9907 496.641 35.112 495.894 35.112ZM495.894 33.866C496.435 33.866 496.935 33.7727 497.392 33.586C497.859 33.3993 498.26 33.138 498.596 32.802C498.941 32.4567 499.207 32.0553 499.394 31.598C499.59 31.1407 499.688 30.6413 499.688 30.1C499.688 29.5587 499.59 29.0593 499.394 28.602C499.207 28.1447 498.941 27.748 498.596 27.412C498.26 27.0667 497.859 26.8007 497.392 26.614C496.935 26.4273 496.435 26.334 495.894 26.334C495.343 26.334 494.835 26.4273 494.368 26.614C493.911 26.8007 493.509 27.0667 493.164 27.412C492.819 27.748 492.548 28.1447 492.352 28.602C492.165 29.0593 492.072 29.5587 492.072 30.1C492.072 30.6413 492.165 31.1407 492.352 31.598C492.548 32.0553 492.819 32.4567 493.164 32.802C493.509 33.138 493.911 33.3993 494.368 33.586C494.835 33.7727 495.343 33.866 495.894 33.866ZM506.254 35.084C505.619 35.084 505.059 34.9673 504.574 34.734C504.098 34.5007 503.724 34.146 503.454 33.67C503.192 33.1847 503.062 32.578 503.062 31.85V27.58H504.406V31.696C504.406 32.424 504.578 32.97 504.924 33.334C505.278 33.698 505.773 33.88 506.408 33.88C506.874 33.88 507.28 33.7867 507.626 33.6C507.971 33.404 508.237 33.124 508.424 32.76C508.61 32.3867 508.704 31.9387 508.704 31.416V27.58H510.048V35H508.774V32.998L508.984 33.53C508.741 34.0247 508.377 34.4073 507.892 34.678C507.406 34.9487 506.86 35.084 506.254 35.084ZM515.254 35.084C514.508 35.084 513.929 34.8833 513.518 34.482C513.108 34.0807 512.902 33.5067 512.902 32.76V25.956H514.246V32.704C514.246 33.1053 514.344 33.4133 514.54 33.628C514.746 33.8427 515.035 33.95 515.408 33.95C515.828 33.95 516.178 33.8333 516.458 33.6L516.878 34.566C516.673 34.7433 516.426 34.874 516.136 34.958C515.856 35.042 515.562 35.084 515.254 35.084ZM511.642 28.686V27.58H516.374V28.686H511.642ZM521.591 35.084C520.835 35.084 520.159 34.9207 519.561 34.594C518.973 34.2673 518.511 33.8193 518.175 33.25C517.839 32.6807 517.671 32.0273 517.671 31.29C517.671 30.5527 517.839 29.8993 518.175 29.33C518.511 28.7607 518.973 28.3173 519.561 28C520.159 27.6733 520.835 27.51 521.591 27.51C522.263 27.51 522.861 27.6453 523.383 27.916C523.915 28.1773 524.326 28.5693 524.615 29.092L523.593 29.75C523.351 29.386 523.052 29.12 522.697 28.952C522.352 28.7747 521.979 28.686 521.577 28.686C521.092 28.686 520.658 28.7933 520.275 29.008C519.893 29.2227 519.589 29.526 519.365 29.918C519.141 30.3007 519.029 30.758 519.029 31.29C519.029 31.822 519.141 32.284 519.365 32.676C519.589 33.068 519.893 33.3713 520.275 33.586C520.658 33.8007 521.092 33.908 521.577 33.908C521.979 33.908 522.352 33.824 522.697 33.656C523.052 33.4787 523.351 33.208 523.593 32.844L524.615 33.488C524.326 34.0013 523.915 34.398 523.383 34.678C522.861 34.9487 522.263 35.084 521.591 35.084ZM529.524 35.084C528.777 35.084 528.115 34.9207 527.536 34.594C526.957 34.2673 526.5 33.8193 526.164 33.25C525.828 32.6713 525.66 32.018 525.66 31.29C525.66 30.5527 525.828 29.8993 526.164 29.33C526.5 28.7607 526.957 28.3173 527.536 28C528.115 27.6733 528.777 27.51 529.524 27.51C530.261 27.51 530.919 27.6733 531.498 28C532.086 28.3173 532.543 28.7607 532.87 29.33C533.206 29.89 533.374 30.5433 533.374 31.29C533.374 32.0273 533.206 32.6807 532.87 33.25C532.543 33.8193 532.086 34.2673 531.498 34.594C530.919 34.9207 530.261 35.084 529.524 35.084ZM529.524 33.908C530 33.908 530.425 33.8007 530.798 33.586C531.181 33.3713 531.479 33.068 531.694 32.676C531.909 32.2747 532.016 31.8127 532.016 31.29C532.016 30.758 531.909 30.3007 531.694 29.918C531.479 29.526 531.181 29.2227 530.798 29.008C530.425 28.7933 530 28.686 529.524 28.686C529.048 28.686 528.623 28.7933 528.25 29.008C527.877 29.2227 527.578 29.526 527.354 29.918C527.13 30.3007 527.018 30.758 527.018 31.29C527.018 31.8127 527.13 32.2747 527.354 32.676C527.578 33.068 527.877 33.3713 528.25 33.586C528.623 33.8007 529.048 33.908 529.524 33.908ZM544.615 27.51C545.212 27.51 545.739 27.6267 546.197 27.86C546.654 28.0933 547.009 28.448 547.261 28.924C547.522 29.4 547.653 30.002 547.653 30.73V35H546.309V30.884C546.309 30.1653 546.141 29.624 545.805 29.26C545.469 28.896 544.997 28.714 544.391 28.714C543.943 28.714 543.551 28.8073 543.215 28.994C542.879 29.1807 542.617 29.456 542.431 29.82C542.253 30.184 542.165 30.6367 542.165 31.178V35H540.821V30.884C540.821 30.1653 540.653 29.624 540.317 29.26C539.99 28.896 539.519 28.714 538.903 28.714C538.464 28.714 538.077 28.8073 537.741 28.994C537.405 29.1807 537.143 29.456 536.957 29.82C536.77 30.184 536.677 30.6367 536.677 31.178V35H535.333V27.58H536.621V29.554L536.411 29.05C536.644 28.5647 537.003 28.1867 537.489 27.916C537.974 27.6453 538.539 27.51 539.183 27.51C539.892 27.51 540.503 27.6873 541.017 28.042C541.53 28.3873 541.866 28.9147 542.025 29.624L541.479 29.4C541.703 28.8307 542.095 28.3733 542.655 28.028C543.215 27.6827 543.868 27.51 544.615 27.51ZM553.53 35.084C552.736 35.084 552.036 34.9207 551.43 34.594C550.832 34.2673 550.366 33.8193 550.03 33.25C549.703 32.6807 549.54 32.0273 549.54 31.29C549.54 30.5527 549.698 29.8993 550.016 29.33C550.342 28.7607 550.786 28.3173 551.346 28C551.915 27.6733 552.554 27.51 553.264 27.51C553.982 27.51 554.617 27.6687 555.168 27.986C555.718 28.3033 556.148 28.7513 556.456 29.33C556.773 29.8993 556.932 30.5667 556.932 31.332C556.932 31.388 556.927 31.4533 556.918 31.528C556.918 31.6027 556.913 31.6727 556.904 31.738H550.59V30.772H556.204L555.658 31.108C555.667 30.632 555.569 30.2073 555.364 29.834C555.158 29.4607 554.874 29.1713 554.51 28.966C554.155 28.7513 553.74 28.644 553.264 28.644C552.797 28.644 552.382 28.7513 552.018 28.966C551.654 29.1713 551.369 29.4653 551.164 29.848C550.958 30.2213 550.856 30.6507 550.856 31.136V31.36C550.856 31.8547 550.968 32.298 551.192 32.69C551.425 33.0727 551.747 33.3713 552.158 33.586C552.568 33.8007 553.04 33.908 553.572 33.908C554.01 33.908 554.407 33.8333 554.762 33.684C555.126 33.5347 555.443 33.3107 555.714 33.012L556.456 33.88C556.12 34.272 555.7 34.5707 555.196 34.776C554.701 34.9813 554.146 35.084 553.53 35.084Z" fill="#262626"/>
<defs>
<filter id="filter0_d_1_272" x="49.2018" y="141" width="523.305" height="165.002" filterUnits="userSpaceOnUse" color-interpolation-filters="sRGB">
<feFlood flood-opacity="0" result="BackgroundImageFix"/>
<feColorMatrix in="SourceAlpha" type="matrix" values="0 0 0 0 0 0 0 0 0 0 0 0 0 0 0 0 0 0 127 0" result="hardAlpha"/>
<feOffset dy="4"/>
<feGaussianBlur stdDeviation="2"/>
<feColorMatrix type="matrix" values="0 0 0 0 0 0 0 0 0 0.847059 0 0 0 0 1 0 0 0 0.17 0"/>
<feBlend mode="normal" in2="BackgroundImageFix" result="effect1_dropShadow_1_272"/>
<feBlend mode="normal" in="SourceGraphic" in2="effect1_dropShadow_1_272" result="shape"/>
</filter>
<filter id="filter1_d_1_272" x="153.067" y="178" width="21.8458" height="22" filterUnits="userSpaceOnUse" color-interpolation-filters="sRGB">
<feFlood flood-opacity="0" result="BackgroundImageFix"/>
<feColorMatrix in="SourceAlpha" type="matrix" values="0 0 0 0 0 0 0 0 0 0 0 0 0 0 0 0 0 0 127 0" result="hardAlpha"/>
<feOffset dy="4"/>
<feGaussianBlur stdDeviation="2"/>
<feColorMatrix type="matrix" values="0 0 0 0 0.376471 0 0 0 0 0.356863 0 0 0 0 1 0 0 0 0.17 0"/>
<feBlend mode="normal" in2="BackgroundImageFix" result="effect1_dropShadow_1_272"/>
<feBlend mode="normal" in="SourceGraphic" in2="effect1_dropShadow_1_272" result="shape"/>
</filter>
<filter id="filter2_d_1_272" x="234.163" y="241" width="21.8458" height="22" filterUnits="userSpaceOnUse" color-interpolation-filters="sRGB">
<feFlood flood-opacity="0" result="BackgroundImageFix"/>
<feColorMatrix in="SourceAlpha" type="matrix" values="0 0 0 0 0 0 0 0 0 0 0 0 0 0 0 0 0 0 127 0" result="hardAlpha"/>
<feOffset dy="4"/>
<feGaussianBlur stdDeviation="2"/>
<feColorMatrix type="matrix" values="0 0 0 0 0.376471 0 0 0 0 0.356863 0 0 0 0 1 0 0 0 0.17 0"/>
<feBlend mode="normal" in2="BackgroundImageFix" result="effect1_dropShadow_1_272"/>
<feBlend mode="normal" in="SourceGraphic" in2="effect1_dropShadow_1_272" result="shape"/>
</filter>
<filter id="filter3_d_1_272" x="299.436" y="195" width="21.8458" height="22" filterUnits="userSpaceOnUse" color-interpolation-filters="sRGB">
<feFlood flood-opacity="0" result="BackgroundImageFix"/>
<feColorMatrix in="SourceAlpha" type="matrix" values="0 0 0 0 0 0 0 0 0 0 0 0 0 0 0 0 0 0 127 0" result="hardAlpha"/>
<feOffset dy="4"/>
<feGaussianBlur stdDeviation="2"/>
<feColorMatrix type="matrix" values="0 0 0 0 0.376471 0 0 0 0 0.356863 0 0 0 0 1 0 0 0 0.17 0"/>
<feBlend mode="normal" in2="BackgroundImageFix" result="effect1_dropShadow_1_272"/>
<feBlend mode="normal" in="SourceGraphic" in2="effect1_dropShadow_1_272" result="shape"/>
</filter>
<filter id="filter4_d_1_272" x="447.784" y="222" width="21.8458" height="22" filterUnits="userSpaceOnUse" color-interpolation-filters="sRGB">
<feFlood flood-opacity="0" result="BackgroundImageFix"/>
<feColorMatrix in="SourceAlpha" type="matrix" values="0 0 0 0 0 0 0 0 0 0 0 0 0 0 0 0 0 0 127 0" result="hardAlpha"/>
<feOffset dy="4"/>
<feGaussianBlur stdDeviation="2"/>
<feColorMatrix type="matrix" values="0 0 0 0 0.376471 0 0 0 0 0.356863 0 0 0 0 1 0 0 0 0.17 0"/>
<feBlend mode="normal" in2="BackgroundImageFix" result="effect1_dropShadow_1_272"/>
<feBlend mode="normal" in="SourceGraphic" in2="effect1_dropShadow_1_272" result="shape"/>
</filter>
<filter id="filter5_d_1_272" x="547.671" y="152" width="21.8458" height="22" filterUnits="userSpaceOnUse" color-interpolation-filters="sRGB">
<feFlood flood-opacity="0" result="BackgroundImageFix"/>
<feColorMatrix in="SourceAlpha" type="matrix" values="0 0 0 0 0 0 0 0 0 0 0 0 0 0 0 0 0 0 127 0" result="hardAlpha"/>
<feOffset dy="4"/>
<feGaussianBlur stdDeviation="2"/>
<feColorMatrix type="matrix" values="0 0 0 0 0.376471 0 0 0 0 0.356863 0 0 0 0 1 0 0 0 0.17 0"/>
<feBlend mode="normal" in2="BackgroundImageFix" result="effect1_dropShadow_1_272"/>
<feBlend mode="normal" in="SourceGraphic" in2="effect1_dropShadow_1_272" result="shape"/>
</filter>
<filter id="filter6_d_1_272" x="267.756" y="125" width="85.1426" height="77.6136" filterUnits="userSpaceOnUse" color-interpolation-filters="sRGB">
<feFlood flood-opacity="0" result="BackgroundImageFix"/>
<feColorMatrix in="SourceAlpha" type="matrix" values="0 0 0 0 0 0 0 0 0 0 0 0 0 0 0 0 0 0 127 0" result="hardAlpha"/>
<feOffset dy="4"/>
<feGaussianBlur stdDeviation="3.5"/>
<feColorMatrix type="matrix" values="0 0 0 0 0.0117647 0 0 0 0 0.00784314 0 0 0 0 0.160784 0 0 0 0.07 0"/>
<feBlend mode="normal" in2="BackgroundImageFix" result="effect1_dropShadow_1_272"/>
<feBlend mode="normal" in="SourceGraphic" in2="effect1_dropShadow_1_272" result="shape"/>
</filter>
<linearGradient id="paint0_linear_1_272" x1="49.5001" y1="157.251" x2="566.506" y2="156.198" gradientUnits="userSpaceOnUse">
<stop stop-color="#00D8FF" stop-opacity="0.04"/>
<stop offset="1" stop-color="#125EF7" stop-opacity="0.04"/>
</linearGradient>
<linearGradient id="paint1_linear_1_272" x1="47.7798" y1="143" x2="573.928" y2="143" gradientUnits="userSpaceOnUse">
<stop stop-color="#00C4FF"/>
<stop offset="1" stop-color="#125EF7"/>
</linearGradient>
</defs>
</svg>
