<svg width="157" height="158" viewBox="0 0 157 158" fill="none" xmlns="http://www.w3.org/2000/svg">
<g filter="url(#filter0_f_1_327)">
<path d="M27.6394 79.1604C24.9939 79.192 22.8536 81.3665 23.1127 83.9994C24.0278 93.2984 27.2754 102.245 32.5881 109.994C38.8063 119.064 47.5745 126.086 57.7839 130.173C67.9932 134.26 79.1851 135.227 89.9443 132.953C99.1366 131.01 107.66 126.776 114.739 120.677C116.743 118.95 116.695 115.899 114.802 114.051C112.909 112.202 109.89 112.261 107.855 113.952C102.123 118.714 95.3006 122.029 87.9631 123.579C79.0578 125.462 69.7944 124.661 61.3443 121.278C52.8942 117.896 45.6368 112.083 40.49 104.576C36.2493 98.3908 33.5983 91.2836 32.7356 83.8817C32.4293 81.2539 30.2848 79.1288 27.6394 79.1604Z" fill="#106DF9"/>
</g>
<g filter="url(#filter1_f_1_327)">
<path d="M115.941 112.845C117.894 114.63 120.942 114.507 122.553 112.408C128.905 104.132 132.821 94.2071 133.804 83.7565C134.786 73.3059 132.787 62.8248 128.089 53.5107C126.897 51.1486 123.925 50.459 121.674 51.8494C119.423 53.2399 118.751 56.183 119.9 58.5661C123.527 66.0882 125.052 74.486 124.265 82.86C123.478 91.2341 120.415 99.2006 115.45 105.915C113.877 108.042 113.989 111.059 115.941 112.845Z" fill="#FF3000"/>
</g>
<g filter="url(#filter2_f_1_327)">
<path d="M120.883 50.6099C123.093 49.1549 123.72 46.1689 122.081 44.0927C115.719 36.0373 107.229 29.8739 97.5293 26.3296C86.3251 22.2356 74.1013 21.8534 62.6632 25.2396C51.2251 28.6258 41.1793 35.6007 34.0095 45.1343C27.8026 53.3876 24.0359 63.1795 23.0846 73.3999C22.8394 76.0342 24.9912 78.1974 27.6368 78.215C30.2824 78.2326 32.4156 76.0962 32.708 73.4668C33.6156 65.3048 36.6956 57.5026 41.6665 50.8928C47.6009 43.002 55.9157 37.2289 65.3828 34.4262C74.85 31.6235 84.9675 31.9398 94.2411 35.3284C102.009 38.1669 108.84 43.035 114.045 49.3875C115.721 51.434 118.674 52.0649 120.883 50.6099Z" fill="#01C3FF"/>
</g>
<path d="M27.6394 79.1604C24.9939 79.192 22.8536 81.3665 23.1127 83.9994C24.0278 93.2984 27.2754 102.245 32.5881 109.994C38.8063 119.064 47.5745 126.086 57.7839 130.173C67.9932 134.26 79.1851 135.227 89.9443 132.953C99.1366 131.01 107.66 126.776 114.739 120.677C116.743 118.95 116.695 115.899 114.802 114.051C112.909 112.202 109.89 112.261 107.855 113.952C102.123 118.714 95.3006 122.029 87.9631 123.579C79.0578 125.462 69.7944 124.661 61.3443 121.278C52.8942 117.896 45.6368 112.083 40.49 104.576C36.2493 98.3908 33.5983 91.2836 32.7356 83.8817C32.4293 81.2539 30.2848 79.1288 27.6394 79.1604Z" fill="#106DF9"/>
<path d="M115.941 112.845C117.894 114.63 120.942 114.507 122.553 112.408C128.905 104.132 132.821 94.2071 133.804 83.7565C134.786 73.3059 132.787 62.8248 128.089 53.5107C126.897 51.1486 123.925 50.459 121.674 51.8494C119.423 53.2399 118.751 56.183 119.9 58.5661C123.527 66.0882 125.052 74.486 124.265 82.86C123.478 91.2341 120.415 99.2006 115.45 105.915C113.877 108.042 113.989 111.059 115.941 112.845Z" fill="#FF3000"/>
<path d="M120.883 50.6099C123.093 49.1549 123.72 46.1689 122.081 44.0927C115.719 36.0373 107.229 29.8739 97.5293 26.3296C86.3251 22.2356 74.1013 21.8534 62.6632 25.2396C51.2251 28.6258 41.1793 35.6007 34.0095 45.1343C27.8026 53.3876 24.0359 63.1795 23.0846 73.3999C22.8394 76.0342 24.9912 78.1974 27.6368 78.215C30.2824 78.2326 32.4156 76.0962 32.708 73.4668C33.6156 65.3048 36.6956 57.5026 41.6665 50.8928C47.6009 43.002 55.9157 37.2289 65.3828 34.4262C74.85 31.6235 84.9675 31.9398 94.2411 35.3284C102.009 38.1669 108.84 43.035 114.045 49.3875C115.721 51.434 118.674 52.0649 120.883 50.6099Z" fill="#01C3FF"/>
<defs>
<filter id="filter0_f_1_327" x="18.0914" y="74.16" width="103.141" height="64.9948" filterUnits="userSpaceOnUse" color-interpolation-filters="sRGB">
<feFlood flood-opacity="0" result="BackgroundImageFix"/>
<feBlend mode="normal" in="SourceGraphic" in2="BackgroundImageFix" result="shape"/>
<feGaussianBlur stdDeviation="2.5" result="effect1_foregroundBlur_1_327"/>
</filter>
<filter id="filter1_f_1_327" x="109.364" y="46.1363" width="29.6839" height="72.9542" filterUnits="userSpaceOnUse" color-interpolation-filters="sRGB">
<feFlood flood-opacity="0" result="BackgroundImageFix"/>
<feBlend mode="normal" in="SourceGraphic" in2="BackgroundImageFix" result="shape"/>
<feGaussianBlur stdDeviation="2.5" result="effect1_foregroundBlur_1_327"/>
</filter>
<filter id="filter2_f_1_327" x="18.0656" y="17.9524" width="109.94" height="65.2628" filterUnits="userSpaceOnUse" color-interpolation-filters="sRGB">
<feFlood flood-opacity="0" result="BackgroundImageFix"/>
<feBlend mode="normal" in="SourceGraphic" in2="BackgroundImageFix" result="shape"/>
<feGaussianBlur stdDeviation="2.5" result="effect1_foregroundBlur_1_327"/>
</filter>
</defs>
</svg>
