<svg width="18" height="12" viewBox="0 0 18 12" fill="none" xmlns="http://www.w3.org/2000/svg">
<path d="M0.7058 6.0492C0.681888 6.01951 0.681888 5.98049 0.7058 5.9508C1.12291 5.43288 4.81518 1 8.99998 1C13.1848 1 16.8771 5.43287 17.2942 5.9508C17.3181 5.98049 17.3181 6.01951 17.2942 6.0492C16.8771 6.56712 13.1848 11 8.99998 11C4.81518 11 1.12292 6.56713 0.7058 6.0492Z" fill="#262626"/>
<path fill-rule="evenodd" clip-rule="evenodd" d="M1.4815 6C1.91013 6.49107 2.74031 7.37732 3.82528 8.22669C5.28492 9.36938 7.1167 10.375 8.99998 10.375C10.8833 10.375 12.715 9.36938 14.1747 8.22669C15.2597 7.37732 16.0898 6.49107 16.5185 6C16.0898 5.50893 15.2597 4.62268 14.1747 3.77331C12.715 2.63062 10.8833 1.625 8.99998 1.625C7.1167 1.625 5.28492 2.63062 3.82528 3.77331C2.74031 4.62268 1.91012 5.50893 1.4815 6ZM3.05474 2.78905C4.59171 1.58582 6.69846 0.375 8.99998 0.375C11.3015 0.375 13.4083 1.58582 14.9452 2.78905C16.4963 4.00328 17.5576 5.28151 17.7809 5.55878C17.9892 5.81732 17.9892 6.18267 17.7809 6.44122C17.5576 6.71848 16.4963 7.99672 14.9452 9.21095C13.4083 10.4142 11.3015 11.625 8.99998 11.625C6.69846 11.625 4.59171 10.4142 3.05474 9.21095C1.50372 7.99672 0.442329 6.71849 0.219031 6.44122C0.0108158 6.18268 0.0108069 5.81733 0.219031 5.55878C0.442327 5.28152 1.50371 4.00328 3.05474 2.78905Z" fill="#262626"/>
<path d="M11.5 6C11.5 7.38071 10.3807 8.5 9 8.5C7.61929 8.5 6.5 7.38071 6.5 6C6.5 4.61929 7.61929 3.5 9 3.5C10.3807 3.5 11.5 4.61929 11.5 6Z" fill="#262626"/>
<path fill-rule="evenodd" clip-rule="evenodd" d="M9 4.125C7.96447 4.125 7.125 4.96447 7.125 6C7.125 7.03553 7.96447 7.875 9 7.875C10.0355 7.875 10.875 7.03553 10.875 6C10.875 4.96447 10.0355 4.125 9 4.125ZM5.875 6C5.875 4.27411 7.27411 2.875 9 2.875C10.7259 2.875 12.125 4.27411 12.125 6C12.125 7.72589 10.7259 9.125 9 9.125C7.27411 9.125 5.875 7.72589 5.875 6Z" fill="white"/>
</svg>
