<svg width="20" height="20" viewBox="0 0 20 20" fill="none" xmlns="http://www.w3.org/2000/svg">
<path d="M15.8333 11.6667C16.75 11.6667 17.5 10.9167 17.5 10C17.5 9.08335 16.75 8.33335 15.8333 8.33335C14.9167 8.33335 14.1667 9.08335 14.1667 10C14.1667 10.9167 14.9167 11.6667 15.8333 11.6667Z" fill="#262626"/>
<path d="M4.16671 11.6667C5.08337 11.6667 5.83337 10.9167 5.83337 10C5.83337 9.08335 5.08337 8.33335 4.16671 8.33335C3.25004 8.33335 2.50004 9.08335 2.50004 10C2.50004 10.9167 3.25004 11.6667 4.16671 11.6667Z" fill="#262626"/>
<path d="M9.99996 11.6667C10.9166 11.6667 11.6666 10.9167 11.6666 10C11.6666 9.08335 10.9166 8.33335 9.99996 8.33335C9.08329 8.33335 8.33329 9.08335 8.33329 10C8.33329 10.9167 9.08329 11.6667 9.99996 11.6667Z" fill="#262626"/>
</svg>
