<svg width="44" height="44" viewBox="0 0 44 44" fill="none" xmlns="http://www.w3.org/2000/svg">
<path d="M22 44C34.1917 44 44 34.1917 44 22C44 9.80826 34.1917 0 22 0C9.80826 0 0 9.80826 0 22C0 34.1917 9.80826 44 22 44Z" fill="#125EF7"/>
<path d="M28.05 25.4833C28.05 22.275 26.125 21.175 22.275 20.7167C19.525 20.35 18.975 19.6167 18.975 18.3333C18.975 17.0498 19.8917 16.225 21.725 16.225C23.375 16.225 24.2917 16.775 24.75 18.15C24.8417 18.425 25.1167 18.6083 25.3917 18.6083H26.8582C27.225 18.6083 27.5 18.3333 27.5 17.9667V17.875C27.1332 15.8583 25.4832 14.3 23.375 14.1167V11.9167C23.375 11.55 23.1 11.275 22.6417 11.1833H21.2667C20.9 11.1833 20.625 11.4583 20.5332 11.9167V14.025C17.7832 14.3917 16.0417 16.225 16.0417 18.5167C16.0417 21.5417 17.875 22.7333 21.725 23.1917C24.2917 23.65 25.1167 24.2 25.1167 25.6667C25.1167 27.1335 23.8332 28.1417 22.0917 28.1417C19.7082 28.1417 18.8832 27.1333 18.6082 25.7583C18.5167 25.3917 18.2417 25.2083 17.9667 25.2083H16.4082C16.0417 25.2083 15.7667 25.4833 15.7667 25.85V25.9417C16.1332 28.2333 17.6 29.8833 20.625 30.3417V32.5417C20.625 32.9083 20.9 33.1833 21.3582 33.275H22.7332C23.1 33.275 23.375 33 23.4667 32.5417V30.3417C26.2167 29.8833 28.05 27.9583 28.05 25.4833Z" fill="white"/>
</svg>
