<svg width="24" height="24" viewBox="0 0 24 24" fill="none" xmlns="http://www.w3.org/2000/svg">
<path fill-rule="evenodd" clip-rule="evenodd" d="M3.8 7.6C3.8 5.50132 5.50132 3.8 7.6 3.8C9.69868 3.8 11.4 5.50132 11.4 7.6C11.4 9.69868 9.69868 11.4 7.6 11.4C5.50132 11.4 3.8 9.69868 3.8 7.6Z" fill="white"/>
<path fill-rule="evenodd" clip-rule="evenodd" d="M12.6 16.4C12.6 14.3013 14.3013 12.6 16.4 12.6C18.4987 12.6 20.2 14.3013 20.2 16.4C20.2 18.4987 18.4987 20.2 16.4 20.2C14.3013 20.2 12.6 18.4987 12.6 16.4Z" fill="white"/>
<path fill-rule="evenodd" clip-rule="evenodd" d="M20.2 7.6C20.2 5.50132 18.4987 3.8 16.4 3.8C14.3013 3.8 12.6 5.50132 12.6 7.6C12.6 9.69868 14.3013 11.4 16.4 11.4C18.4987 11.4 20.2 9.69868 20.2 7.6Z" fill="white"/>
<path fill-rule="evenodd" clip-rule="evenodd" d="M11.4 16.4C11.4 14.3013 9.69868 12.6 7.6 12.6C5.50132 12.6 3.8 14.3013 3.8 16.4C3.8 18.4987 5.50132 20.2 7.6 20.2C9.69868 20.2 11.4 18.4987 11.4 16.4Z" fill="white"/>
</svg>
